<svg xmlns="http://www.w3.org/2000/svg" width="2000" height="1500" viewBox="0 0 2000 1500" version="1.1"><path d="M 481.158 555.612 L 474.816 557.179 471.215 564.763 C 469.234 568.934, 467.660 573.731, 467.717 575.423 C 467.774 577.115, 469.211 581.579, 470.910 585.343 L 474 592.186 474 616.393 C 474 651.551, 471.610 677.052, 467.586 684.834 C 466.740 686.469, 464.503 688.762, 462.615 689.929 C 458.231 692.639, 447.909 703.655, 443.492 710.338 C 437.674 719.142, 437 723.859, 437 755.774 L 437 784.128 442.250 788.959 L 447.500 793.789 448 777.645 L 448.500 761.500 496.750 761.240 L 545 760.981 545 809.990 L 545 859 504.129 859 L 463.258 859 462.614 863.852 C 460.751 877.895, 452.696 902.114, 445.274 915.987 L 440.734 924.473 443.511 929.777 C 446.953 936.352, 449.381 938.298, 457.521 941.007 C 477.877 947.781, 513.423 947.738, 535.558 940.913 C 544.394 938.188, 550.683 932.277, 553.856 923.712 C 555.993 917.943, 556 917.631, 556 821.068 C 556 727.427, 555.934 723.998, 554.024 717.813 C 550.715 707.100, 545.025 699.981, 532.040 690.311 C 526.663 686.306, 525.360 684.746, 524.265 681 C 521.368 671.090, 519.782 650.680, 519.641 621.500 L 519.500 592.500 522.932 584.249 L 526.365 575.999 524.680 570.749 C 523.754 567.862, 521.971 563.700, 520.720 561.500 C 518.812 558.147, 517.639 557.288, 513.472 556.190 C 505.505 554.091, 488.540 553.787, 481.158 555.612 M 482.379 624.250 L 482.258 655 497.245 655 L 512.233 655 511.630 652.750 C 511.299 651.513, 511.021 637.628, 511.014 621.896 L 511 593.291 496.750 593.396 L 482.500 593.500 482.379 624.250 M 1089.500 616.410 C 1058.015 623.840, 1054.469 624.879, 1054.192 626.747 C 1053.934 628.486, 1054.779 629.084, 1059.375 630.421 C 1066.246 632.418, 1070.641 636.046, 1071.965 640.814 C 1072.635 643.228, 1072.983 682.646, 1072.972 755 C 1072.957 860.050, 1072.866 865.699, 1071.120 869.541 C 1068.882 874.469, 1064.576 878.233, 1058.539 880.538 C 1055.397 881.738, 1054 882.845, 1054 884.136 C 1054 885.929, 1055.821 886, 1101.500 886 C 1147.308 886, 1149 885.933, 1149 884.122 C 1149 882.762, 1147.881 881.959, 1144.948 881.215 C 1139.750 879.895, 1134.688 876.413, 1132.345 872.546 C 1130.681 869.799, 1130.437 866.060, 1129.855 834.500 C 1128.804 777.414, 1128.921 682, 1130.087 645.546 L 1131.174 611.560 1128.976 609.780 C 1127.768 608.801, 1126.266 608.034, 1125.639 608.074 C 1125.013 608.115, 1108.750 611.866, 1089.500 616.410 M 1271.904 625.726 C 1271.318 627.252, 1252.410 681.375, 1229.887 746 C 1207.363 810.625, 1187.816 865.191, 1186.448 867.258 C 1183.243 872.101, 1177.248 876.409, 1170.145 878.972 C 1162.832 881.611, 1161.568 882.370, 1161.177 884.357 C 1160.883 885.849, 1163.392 886, 1188.496 886 C 1216.005 886, 1216.138 885.990, 1215.820 883.902 C 1215.588 882.384, 1213.839 881.139, 1209.500 879.401 C 1206.200 878.080, 1202.207 875.580, 1200.626 873.845 C 1197.991 870.953, 1197.799 870.237, 1198.317 865.218 C 1198.628 862.207, 1203.471 846.297, 1209.080 829.862 L 1219.279 799.979 1263.205 800.240 L 1307.131 800.500 1317.066 830.800 C 1327.983 864.098, 1328.702 868.164, 1324.723 874.102 C 1323.079 876.556, 1320.717 878.174, 1316.223 879.926 C 1311.753 881.668, 1310 882.866, 1310 884.176 C 1310 885.917, 1312.290 886, 1360.500 886 C 1408.628 886, 1411 885.915, 1411 884.184 C 1411 882.918, 1409.275 881.653, 1405.310 880.010 C 1397.972 876.968, 1393.018 872.431, 1389.952 865.944 C 1388.603 863.091, 1369.275 807.374, 1347 742.128 L 1306.500 623.500 1289.734 623.226 L 1272.969 622.952 1271.904 625.726 M 624.012 626.250 C 624.022 628.094, 625.279 629.008, 630.978 631.315 C 639.300 634.683, 642.460 638.083, 643.953 645.273 C 644.722 648.980, 644.969 683.083, 644.776 759.033 C 644.482 874.750, 644.722 869.236, 639.731 874.718 C 638.621 875.937, 634.627 878.114, 630.856 879.555 C 625.684 881.531, 624 882.645, 624 884.087 C 624 885.947, 625.489 886, 678 886 C 730.412 886, 732 885.944, 732 884.097 C 732 882.603, 730.446 881.728, 724.750 880.017 C 714.567 876.957, 709.434 873.732, 706.748 868.707 C 704.526 864.549, 704.500 864.040, 704.500 825 L 704.500 785.500 725 784.894 C 754.850 784.011, 771.522 780.759, 788.653 772.475 C 815.795 759.351, 830.152 737.503, 831.692 706.977 C 832.456 691.837, 830.523 681.877, 824.335 669.067 C 820.543 661.219, 818.408 658.280, 811.620 651.567 C 802.322 642.372, 795.571 638.063, 783.151 633.398 C 761.969 625.442, 745.971 624.024, 677.250 624.010 L 624 624 624.012 626.250 M 704 704.603 L 704 777.206 720.250 776.764 C 733.373 776.407, 737.781 775.904, 743.158 774.149 C 759.458 768.830, 767.919 757.956, 772.817 736.034 C 774.144 730.092, 774.494 723.429, 774.470 704.500 C 774.443 683.160, 774.196 679.532, 772.243 671.766 C 765.036 643.121, 748.850 632, 714.369 632 L 704 632 704 704.603 M 1481.987 659.217 C 1472.369 669.786, 1461.800 680.613, 1458.500 683.278 C 1450.301 689.898, 1440.358 694.546, 1428.750 697.185 C 1420.852 698.981, 1419 699.744, 1419 701.201 C 1419 702.844, 1420.170 703, 1432.500 703 L 1446 703 1446.020 773.750 C 1446.031 813.817, 1446.458 847.394, 1447.005 851.172 C 1449.816 870.608, 1460.311 883.536, 1477.760 889.059 C 1487.188 892.043, 1503.809 892.747, 1515 890.637 C 1529.918 887.824, 1544.380 878.717, 1552.473 867.039 C 1555.186 863.124, 1555.224 862.905, 1553.513 861.014 C 1551.764 859.082, 1551.659 859.122, 1546.692 863.587 C 1537.621 871.743, 1533.660 873.500, 1524.346 873.500 C 1516.743 873.500, 1515.937 873.293, 1512.411 870.442 C 1501.740 861.813, 1502.034 864.460, 1502.016 776.750 L 1502 703 1524.500 703 L 1547 703 1547 699 L 1547 695 1524.862 695 L 1502.724 695 1503.205 667.500 C 1503.686 640.051, 1503.683 640, 1501.580 640 C 1500.118 640, 1494.126 645.877, 1481.987 659.217 M 1243.325 730.746 L 1222.235 791.500 1262.773 791.761 C 1285.069 791.905, 1303.538 791.795, 1303.817 791.516 C 1304.291 791.042, 1266.610 673.962, 1265.109 671.246 C 1264.728 670.556, 1254.925 697.331, 1243.325 730.746 M 924.500 690.072 C 894.414 693.660, 870.834 706.199, 863.323 722.605 C 860.167 729.499, 859.089 740.650, 861.001 746.613 C 864.007 755.986, 872.581 761.977, 883 761.985 C 890.879 761.991, 895.125 760.523, 900.233 756.026 C 906.310 750.677, 908.607 744.787, 911.021 728.360 C 914.388 705.443, 918.971 698.906, 932.192 698.159 C 954.231 696.914, 960.997 711.575, 960.999 760.586 L 961 777.673 945.250 780.475 C 901.302 788.294, 880.848 796.242, 865.410 811.500 C 854.616 822.168, 851.718 828.065, 851.187 840.444 C 850.507 856.317, 854.909 867.997, 865.143 877.472 C 876.582 888.063, 890.655 892.651, 908.903 891.739 C 926.416 890.864, 936.279 885.988, 953.715 869.586 L 961.673 862.100 963.915 867.508 C 967.133 875.273, 971.238 880.480, 977.248 884.420 C 985.487 889.823, 992.214 891.301, 1006.404 890.828 C 1017.370 890.462, 1019.115 890.136, 1025.086 887.342 C 1028.995 885.512, 1034.277 881.810, 1038.083 878.232 C 1044.467 872.231, 1044.487 872.196, 1042.593 870.103 C 1040.999 868.341, 1039.536 868, 1033.579 868 C 1025.086 868, 1020.516 865.951, 1017.827 860.938 C 1016.134 857.782, 1015.998 854.146, 1015.977 811.516 C 1015.946 747.113, 1015.013 737.739, 1007.006 721.379 C 999.799 706.655, 986.160 696.657, 966.976 692.036 C 956.934 689.617, 936.315 688.664, 924.500 690.072 M 1652 690.528 C 1620.119 695.531, 1592.827 715.691, 1578.987 744.458 C 1565.995 771.461, 1565.981 811.866, 1578.953 839.619 C 1590.739 864.836, 1610.681 881.456, 1637.941 888.781 C 1646.427 891.061, 1649.464 891.355, 1665 891.405 C 1679.857 891.453, 1683.816 891.129, 1691.209 889.259 C 1705.657 885.606, 1715.801 880.304, 1727.864 870.099 C 1733.349 865.459, 1742.975 853.882, 1745.653 848.704 C 1747.005 846.090, 1746.982 845.638, 1745.411 843.901 C 1743.722 842.035, 1743.503 842.150, 1737.088 848.277 C 1722.849 861.877, 1709.535 867.001, 1688.500 866.975 C 1659.036 866.939, 1640.359 852.403, 1633.082 823.847 C 1630.979 815.597, 1629 800.172, 1629 792.039 L 1629 787 1687.981 787 L 1746.962 787 1747.731 784.250 C 1749.213 778.952, 1748.556 755.911, 1746.695 747.898 C 1743.170 732.720, 1733.548 716.795, 1722.293 707.512 C 1703.898 692.339, 1678.917 686.303, 1652 690.528 M 1657.672 698.371 C 1639.655 703.445, 1631.197 723.253, 1629.330 764.750 L 1628.689 779 1662.376 779 C 1693.524 779, 1696.116 778.868, 1696.765 777.250 C 1697.152 776.288, 1697.475 765.825, 1697.484 754 C 1697.505 725.537, 1695.221 715.016, 1686.982 705.632 C 1680.880 698.682, 1667.945 695.478, 1657.672 698.371 M 298.500 759.459 C 276.873 764.602, 271.726 764.994, 259.353 762.438 C 255.194 761.579, 251.582 761.084, 251.328 761.339 C 250.577 762.090, 256.677 779.413, 260.090 786.223 C 267.381 800.770, 275.549 809.562, 286.570 814.723 C 291.748 817.148, 293.704 817.500, 302 817.500 C 318.830 817.500, 329.718 811.758, 333.827 800.715 L 335.767 795.500 343.470 795 C 347.707 794.725, 351.359 794.687, 351.586 794.917 C 351.814 795.146, 352 799.743, 352 805.131 C 352 814.052, 352.188 815.030, 354.093 816.050 C 355.244 816.666, 357.256 816.901, 358.564 816.573 C 362.649 815.548, 363.319 812.737, 362.741 799.062 C 361.951 780.393, 358.234 772, 350.756 772 C 346.679 772, 345.085 775.859, 347.271 780.441 C 349.191 784.467, 348.507 785, 341.418 785 L 337 785 336.994 780.750 C 336.982 771.323, 333.193 764.669, 325.642 760.817 C 320.331 758.108, 306.990 757.440, 298.500 759.459 M 948 788.147 C 928.200 792.219, 912.100 803.352, 906.996 816.500 C 903.776 824.796, 903.026 841.496, 905.518 849.418 C 909.906 863.369, 923.301 870.671, 937.130 866.651 C 942.782 865.007, 953.443 858.728, 958.250 854.210 L 961 851.626 961 818.813 C 961 788.192, 960.883 786.006, 959.250 786.097 C 958.288 786.150, 953.225 787.073, 948 788.147 M 384.418 790.969 C 383.274 791.432, 381.136 793.238, 379.668 794.982 C 377.333 797.758, 376.995 799.048, 376.956 805.327 C 376.932 809.272, 376.310 814.188, 375.574 816.250 C 374.621 818.920, 374.562 819.999, 375.368 819.996 C 376.963 819.991, 383 816.200, 383 815.203 C 383 813.537, 387.136 810, 389.084 810 C 391.702 810, 396 814.336, 396 816.977 C 396 822.489, 382.978 831.739, 371.862 834.123 C 359.786 836.713, 343.740 833.193, 340.300 827.201 L 338.639 824.305 335.244 826.609 C 322.990 834.925, 300.823 836.939, 287.232 830.971 L 282.964 829.097 280.526 832.798 C 277.493 837.403, 275 846.778, 275 853.579 C 275 870.636, 284.144 897.631, 296.143 916 C 303.069 926.602, 314.491 937.385, 323.113 941.460 C 333.075 946.168, 339.685 946.864, 347.500 944.027 C 356.302 940.832, 358.106 940.657, 364.061 942.426 C 398.303 952.594, 427.307 929.398, 441.493 880.500 C 447.384 860.194, 448.168 843.284, 443.927 827.980 C 436.923 802.706, 420.793 789.902, 396.161 790.063 C 390.847 790.098, 385.563 790.506, 384.418 790.969" stroke="none" fill="#384c23" fill-rule="evenodd"/><path d="M 0 750 L 0 1500.001 1000.250 1499.750 L 2000.500 1499.500 2000.751 749.750 L 2001.001 0 1000.501 0 L 0 0 0 750 M 0.497 750.500 C 0.497 1163, 0.611 1331.600, 0.750 1125.168 C 0.889 918.735, 0.889 581.235, 0.750 375.168 C 0.611 169.100, 0.497 338, 0.497 750.500 M 481.158 555.612 L 474.816 557.179 471.215 564.763 C 469.234 568.934, 467.660 573.731, 467.717 575.423 C 467.774 577.115, 469.211 581.579, 470.910 585.343 L 474 592.186 474 616.393 C 474 651.551, 471.610 677.052, 467.586 684.834 C 466.740 686.469, 464.503 688.762, 462.615 689.929 C 458.231 692.639, 447.909 703.655, 443.492 710.338 C 437.674 719.142, 437 723.859, 437 755.774 L 437 784.128 442.250 788.959 L 447.500 793.789 448 777.645 L 448.500 761.500 496.750 761.240 L 545 760.981 545 809.990 L 545 859 504.129 859 L 463.258 859 462.614 863.852 C 460.751 877.895, 452.696 902.114, 445.274 915.987 L 440.734 924.473 443.511 929.777 C 446.953 936.352, 449.381 938.298, 457.521 941.007 C 477.877 947.781, 513.423 947.738, 535.558 940.913 C 544.394 938.188, 550.683 932.277, 553.856 923.712 C 555.993 917.943, 556 917.631, 556 821.068 C 556 727.427, 555.934 723.998, 554.024 717.813 C 550.715 707.100, 545.025 699.981, 532.040 690.311 C 526.663 686.306, 525.360 684.746, 524.265 681 C 521.368 671.090, 519.782 650.680, 519.641 621.500 L 519.500 592.500 522.932 584.249 L 526.365 575.999 524.680 570.749 C 523.754 567.862, 521.971 563.700, 520.720 561.500 C 518.812 558.147, 517.639 557.288, 513.472 556.190 C 505.505 554.091, 488.540 553.787, 481.158 555.612 M 482.379 624.250 L 482.258 655 497.245 655 L 512.233 655 511.630 652.750 C 511.299 651.513, 511.021 637.628, 511.014 621.896 L 511 593.291 496.750 593.396 L 482.500 593.500 482.379 624.250 M 1089.500 616.410 C 1058.015 623.840, 1054.469 624.879, 1054.192 626.747 C 1053.934 628.486, 1054.779 629.084, 1059.375 630.421 C 1066.246 632.418, 1070.641 636.046, 1071.965 640.814 C 1072.635 643.228, 1072.983 682.646, 1072.972 755 C 1072.957 860.050, 1072.866 865.699, 1071.120 869.541 C 1068.882 874.469, 1064.576 878.233, 1058.539 880.538 C 1055.397 881.738, 1054 882.845, 1054 884.136 C 1054 885.929, 1055.821 886, 1101.500 886 C 1147.308 886, 1149 885.933, 1149 884.122 C 1149 882.762, 1147.881 881.959, 1144.948 881.215 C 1139.750 879.895, 1134.688 876.413, 1132.345 872.546 C 1130.681 869.799, 1130.437 866.060, 1129.855 834.500 C 1128.804 777.414, 1128.921 682, 1130.087 645.546 L 1131.174 611.560 1128.976 609.780 C 1127.768 608.801, 1126.266 608.034, 1125.639 608.074 C 1125.013 608.115, 1108.750 611.866, 1089.500 616.410 M 1271.904 625.726 C 1271.318 627.252, 1252.410 681.375, 1229.887 746 C 1207.363 810.625, 1187.816 865.191, 1186.448 867.258 C 1183.243 872.101, 1177.248 876.409, 1170.145 878.972 C 1162.832 881.611, 1161.568 882.370, 1161.177 884.357 C 1160.883 885.849, 1163.392 886, 1188.496 886 C 1216.005 886, 1216.138 885.990, 1215.820 883.902 C 1215.588 882.384, 1213.839 881.139, 1209.500 879.401 C 1206.200 878.080, 1202.207 875.580, 1200.626 873.845 C 1197.991 870.953, 1197.799 870.237, 1198.317 865.218 C 1198.628 862.207, 1203.471 846.297, 1209.080 829.862 L 1219.279 799.979 1263.205 800.240 L 1307.131 800.500 1317.066 830.800 C 1327.983 864.098, 1328.702 868.164, 1324.723 874.102 C 1323.079 876.556, 1320.717 878.174, 1316.223 879.926 C 1311.753 881.668, 1310 882.866, 1310 884.176 C 1310 885.917, 1312.290 886, 1360.500 886 C 1408.628 886, 1411 885.915, 1411 884.184 C 1411 882.918, 1409.275 881.653, 1405.310 880.010 C 1397.972 876.968, 1393.018 872.431, 1389.952 865.944 C 1388.603 863.091, 1369.275 807.374, 1347 742.128 L 1306.500 623.500 1289.734 623.226 L 1272.969 622.952 1271.904 625.726 M 624.012 626.250 C 624.022 628.094, 625.279 629.008, 630.978 631.315 C 639.300 634.683, 642.460 638.083, 643.953 645.273 C 644.722 648.980, 644.969 683.083, 644.776 759.033 C 644.482 874.750, 644.722 869.236, 639.731 874.718 C 638.621 875.937, 634.627 878.114, 630.856 879.555 C 625.684 881.531, 624 882.645, 624 884.087 C 624 885.947, 625.489 886, 678 886 C 730.412 886, 732 885.944, 732 884.097 C 732 882.603, 730.446 881.728, 724.750 880.017 C 714.567 876.957, 709.434 873.732, 706.748 868.707 C 704.526 864.549, 704.500 864.040, 704.500 825 L 704.500 785.500 725 784.894 C 754.850 784.011, 771.522 780.759, 788.653 772.475 C 815.795 759.351, 830.152 737.503, 831.692 706.977 C 832.456 691.837, 830.523 681.877, 824.335 669.067 C 820.543 661.219, 818.408 658.280, 811.620 651.567 C 802.322 642.372, 795.571 638.063, 783.151 633.398 C 761.969 625.442, 745.971 624.024, 677.250 624.010 L 624 624 624.012 626.250 M 704 704.603 L 704 777.206 720.250 776.764 C 733.373 776.407, 737.781 775.904, 743.158 774.149 C 759.458 768.830, 767.919 757.956, 772.817 736.034 C 774.144 730.092, 774.494 723.429, 774.470 704.500 C 774.443 683.160, 774.196 679.532, 772.243 671.766 C 765.036 643.121, 748.850 632, 714.369 632 L 704 632 704 704.603 M 1481.987 659.217 C 1472.369 669.786, 1461.800 680.613, 1458.500 683.278 C 1450.301 689.898, 1440.358 694.546, 1428.750 697.185 C 1420.852 698.981, 1419 699.744, 1419 701.201 C 1419 702.844, 1420.170 703, 1432.500 703 L 1446 703 1446.020 773.750 C 1446.031 813.817, 1446.458 847.394, 1447.005 851.172 C 1449.816 870.608, 1460.311 883.536, 1477.760 889.059 C 1487.188 892.043, 1503.809 892.747, 1515 890.637 C 1529.918 887.824, 1544.380 878.717, 1552.473 867.039 C 1555.186 863.124, 1555.224 862.905, 1553.513 861.014 C 1551.764 859.082, 1551.659 859.122, 1546.692 863.587 C 1537.621 871.743, 1533.660 873.500, 1524.346 873.500 C 1516.743 873.500, 1515.937 873.293, 1512.411 870.442 C 1501.740 861.813, 1502.034 864.460, 1502.016 776.750 L 1502 703 1524.500 703 L 1547 703 1547 699 L 1547 695 1524.862 695 L 1502.724 695 1503.205 667.500 C 1503.686 640.051, 1503.683 640, 1501.580 640 C 1500.118 640, 1494.126 645.877, 1481.987 659.217 M 1243.325 730.746 L 1222.235 791.500 1262.773 791.761 C 1285.069 791.905, 1303.538 791.795, 1303.817 791.516 C 1304.291 791.042, 1266.610 673.962, 1265.109 671.246 C 1264.728 670.556, 1254.925 697.331, 1243.325 730.746 M 924.500 690.072 C 894.414 693.660, 870.834 706.199, 863.323 722.605 C 860.167 729.499, 859.089 740.650, 861.001 746.613 C 864.007 755.986, 872.581 761.977, 883 761.985 C 890.879 761.991, 895.125 760.523, 900.233 756.026 C 906.310 750.677, 908.607 744.787, 911.021 728.360 C 914.388 705.443, 918.971 698.906, 932.192 698.159 C 954.231 696.914, 960.997 711.575, 960.999 760.586 L 961 777.673 945.250 780.475 C 901.302 788.294, 880.848 796.242, 865.410 811.500 C 854.616 822.168, 851.718 828.065, 851.187 840.444 C 850.507 856.317, 854.909 867.997, 865.143 877.472 C 876.582 888.063, 890.655 892.651, 908.903 891.739 C 926.416 890.864, 936.279 885.988, 953.715 869.586 L 961.673 862.100 963.915 867.508 C 967.133 875.273, 971.238 880.480, 977.248 884.420 C 985.487 889.823, 992.214 891.301, 1006.404 890.828 C 1017.370 890.462, 1019.115 890.136, 1025.086 887.342 C 1028.995 885.512, 1034.277 881.810, 1038.083 878.232 C 1044.467 872.231, 1044.487 872.196, 1042.593 870.103 C 1040.999 868.341, 1039.536 868, 1033.579 868 C 1025.086 868, 1020.516 865.951, 1017.827 860.938 C 1016.134 857.782, 1015.998 854.146, 1015.977 811.516 C 1015.946 747.113, 1015.013 737.739, 1007.006 721.379 C 999.799 706.655, 986.160 696.657, 966.976 692.036 C 956.934 689.617, 936.315 688.664, 924.500 690.072 M 1652 690.528 C 1620.119 695.531, 1592.827 715.691, 1578.987 744.458 C 1565.995 771.461, 1565.981 811.866, 1578.953 839.619 C 1590.739 864.836, 1610.681 881.456, 1637.941 888.781 C 1646.427 891.061, 1649.464 891.355, 1665 891.405 C 1679.857 891.453, 1683.816 891.129, 1691.209 889.259 C 1705.657 885.606, 1715.801 880.304, 1727.864 870.099 C 1733.349 865.459, 1742.975 853.882, 1745.653 848.704 C 1747.005 846.090, 1746.982 845.638, 1745.411 843.901 C 1743.722 842.035, 1743.503 842.150, 1737.088 848.277 C 1722.849 861.877, 1709.535 867.001, 1688.500 866.975 C 1659.036 866.939, 1640.359 852.403, 1633.082 823.847 C 1630.979 815.597, 1629 800.172, 1629 792.039 L 1629 787 1687.981 787 L 1746.962 787 1747.731 784.250 C 1749.213 778.952, 1748.556 755.911, 1746.695 747.898 C 1743.170 732.720, 1733.548 716.795, 1722.293 707.512 C 1703.898 692.339, 1678.917 686.303, 1652 690.528 M 1657.672 698.371 C 1639.655 703.445, 1631.197 723.253, 1629.330 764.750 L 1628.689 779 1662.376 779 C 1693.524 779, 1696.116 778.868, 1696.765 777.250 C 1697.152 776.288, 1697.475 765.825, 1697.484 754 C 1697.505 725.537, 1695.221 715.016, 1686.982 705.632 C 1680.880 698.682, 1667.945 695.478, 1657.672 698.371 M 298.500 759.459 C 276.873 764.602, 271.726 764.994, 259.353 762.438 C 255.194 761.579, 251.582 761.084, 251.328 761.339 C 250.577 762.090, 256.677 779.413, 260.090 786.223 C 267.381 800.770, 275.549 809.562, 286.570 814.723 C 291.748 817.148, 293.704 817.500, 302 817.500 C 318.830 817.500, 329.718 811.758, 333.827 800.715 L 335.767 795.500 343.470 795 C 347.707 794.725, 351.359 794.687, 351.586 794.917 C 351.814 795.146, 352 799.743, 352 805.131 C 352 814.052, 352.188 815.030, 354.093 816.050 C 355.244 816.666, 357.256 816.901, 358.564 816.573 C 362.649 815.548, 363.319 812.737, 362.741 799.062 C 361.951 780.393, 358.234 772, 350.756 772 C 346.679 772, 345.085 775.859, 347.271 780.441 C 349.191 784.467, 348.507 785, 341.418 785 L 337 785 336.994 780.750 C 336.982 771.323, 333.193 764.669, 325.642 760.817 C 320.331 758.108, 306.990 757.440, 298.500 759.459 M 948 788.147 C 928.200 792.219, 912.100 803.352, 906.996 816.500 C 903.776 824.796, 903.026 841.496, 905.518 849.418 C 909.906 863.369, 923.301 870.671, 937.130 866.651 C 942.782 865.007, 953.443 858.728, 958.250 854.210 L 961 851.626 961 818.813 C 961 788.192, 960.883 786.006, 959.250 786.097 C 958.288 786.150, 953.225 787.073, 948 788.147 M 384.418 790.969 C 383.274 791.432, 381.136 793.238, 379.668 794.982 C 377.333 797.758, 376.995 799.048, 376.956 805.327 C 376.932 809.272, 376.310 814.188, 375.574 816.250 C 374.621 818.920, 374.562 819.999, 375.368 819.996 C 376.963 819.991, 383 816.200, 383 815.203 C 383 813.537, 387.136 810, 389.084 810 C 391.702 810, 396 814.336, 396 816.977 C 396 822.489, 382.978 831.739, 371.862 834.123 C 359.786 836.713, 343.740 833.193, 340.300 827.201 L 338.639 824.305 335.244 826.609 C 322.990 834.925, 300.823 836.939, 287.232 830.971 L 282.964 829.097 280.526 832.798 C 277.493 837.403, 275 846.778, 275 853.579 C 275 870.636, 284.144 897.631, 296.143 916 C 303.069 926.602, 314.491 937.385, 323.113 941.460 C 333.075 946.168, 339.685 946.864, 347.500 944.027 C 356.302 940.832, 358.106 940.657, 364.061 942.426 C 398.303 952.594, 427.307 929.398, 441.493 880.500 C 447.384 860.194, 448.168 843.284, 443.927 827.980 C 436.923 802.706, 420.793 789.902, 396.161 790.063 C 390.847 790.098, 385.563 790.506, 384.418 790.969" stroke="none" fill="#fbfbcb" fill-rule="evenodd"/></svg>