<svg id="svg" version="1.1" xmlns="http://www.w3.org/2000/svg" xmlns:xlink="http://www.w3.org/1999/xlink" width="400" height="400" viewBox="0, 0, 400,400"><g id="svgg"><path id="path0" d="M189.674 110.416 C 187.992 110.592,186.460 110.984,186.068 111.338 C 185.694 111.677,184.637 112.123,183.718 112.329 C 182.800 112.535,181.563 113.086,180.970 113.552 C 180.377 114.018,179.673 114.400,179.404 114.400 C 177.935 114.400,170.730 122.092,170.225 124.200 C 170.067 124.860,169.679 125.688,169.362 126.039 C 167.603 127.992,167.614 142.257,169.377 145.629 C 169.940 146.705,170.400 147.860,170.400 148.197 C 170.400 148.533,170.760 149.116,171.200 149.493 C 171.640 149.870,172.000 150.390,172.000 150.649 C 172.000 151.305,178.758 158.000,179.420 158.000 C 179.717 158.000,180.115 158.276,180.303 158.613 C 180.677 159.281,181.591 159.816,186.294 162.125 C 192.136 164.993,193.401 165.554,194.600 165.808 C 195.260 165.948,196.070 166.293,196.400 166.575 C 196.730 166.857,197.884 167.303,198.965 167.566 C 200.046 167.829,201.375 168.394,201.919 168.822 C 202.463 169.250,203.183 169.600,203.520 169.600 C 204.430 169.600,209.735 172.199,210.358 172.950 C 210.655 173.307,211.110 173.600,211.369 173.600 C 211.936 173.600,216.277 176.747,217.400 177.972 C 217.840 178.452,218.573 179.240,219.030 179.722 C 222.394 183.281,223.798 194.190,221.300 197.364 C 220.805 197.993,220.400 198.744,220.400 199.033 C 220.400 199.483,219.771 200.328,218.043 202.200 C 216.449 203.927,212.867 205.995,210.665 206.458 C 209.529 206.698,208.352 207.094,208.048 207.339 C 207.262 207.973,199.760 208.160,197.600 207.599 C 196.610 207.342,194.738 206.888,193.440 206.591 C 190.864 206.001,186.389 203.951,185.599 202.998 C 185.326 202.669,184.899 202.399,184.651 202.399 C 184.205 202.397,180.069 198.206,178.686 196.356 C 178.294 195.830,177.439 194.700,176.786 193.845 C 176.134 192.990,175.600 192.032,175.600 191.716 C 175.600 191.401,175.167 190.390,174.638 189.471 C 174.110 188.552,173.547 186.994,173.388 186.009 C 173.229 185.024,172.861 183.854,172.570 183.409 C 172.280 182.964,171.873 180.913,171.667 178.852 C 171.243 174.617,171.038 174.343,168.400 174.496 L 166.600 174.600 166.400 192.800 C 166.185 212.376,166.099 211.584,168.438 211.594 C 170.031 211.601,170.985 210.811,171.401 209.144 C 172.178 206.030,176.529 204.779,179.721 206.751 C 180.476 207.218,181.433 207.601,181.847 207.601 C 182.261 207.602,183.197 207.967,183.926 208.411 C 184.655 208.856,186.185 209.404,187.326 209.630 C 188.467 209.856,190.157 210.400,191.083 210.840 C 194.352 212.392,215.504 212.279,218.045 210.696 C 218.570 210.368,219.884 209.888,220.965 209.628 C 222.046 209.368,223.375 208.806,223.919 208.378 C 224.463 207.950,225.129 207.600,225.399 207.600 C 226.528 207.600,232.459 202.278,233.898 199.974 C 237.140 194.784,237.659 193.048,237.888 186.635 C 238.133 179.767,237.609 175.246,236.388 173.694 C 235.955 173.143,235.600 172.355,235.600 171.942 C 235.600 171.530,235.240 170.884,234.800 170.507 C 234.360 170.130,233.995 169.637,233.989 169.411 C 233.964 168.458,225.453 160.400,224.471 160.400 C 224.229 160.400,223.709 160.071,223.316 159.669 C 222.922 159.268,221.970 158.695,221.200 158.396 C 220.430 158.098,219.371 157.527,218.846 157.127 C 218.321 156.727,217.591 156.400,217.224 156.400 C 216.856 156.400,215.963 155.963,215.239 155.429 C 214.515 154.894,213.230 154.340,212.384 154.197 C 211.538 154.054,210.638 153.686,210.383 153.379 C 210.128 153.072,209.263 152.706,208.460 152.566 C 207.657 152.426,206.418 151.979,205.706 151.573 C 204.994 151.166,203.697 150.642,202.824 150.406 C 201.951 150.171,200.985 149.728,200.678 149.421 C 200.371 149.114,199.381 148.664,198.478 148.421 C 197.575 148.178,196.584 147.727,196.276 147.419 C 195.968 147.111,195.105 146.572,194.358 146.221 C 192.100 145.160,189.892 143.708,189.516 143.035 C 189.320 142.686,188.963 142.400,188.723 142.400 C 188.122 142.400,185.610 139.914,185.604 139.314 C 185.602 139.047,185.254 138.643,184.832 138.417 C 184.410 138.191,183.854 137.330,183.598 136.503 C 183.341 135.676,182.877 134.433,182.566 133.740 C 180.527 129.196,183.697 120.154,188.318 117.332 C 193.340 114.266,201.512 112.950,205.413 114.580 C 206.177 114.899,207.824 115.349,209.075 115.580 C 210.326 115.811,211.720 116.340,212.174 116.754 C 212.628 117.169,213.404 117.630,213.897 117.780 C 216.592 118.597,222.540 124.706,224.237 128.400 C 224.590 129.170,225.122 130.073,225.417 130.406 C 225.713 130.740,226.154 131.903,226.398 132.990 C 226.641 134.078,227.038 135.205,227.280 135.496 C 227.521 135.787,227.917 137.234,228.159 138.712 L 228.600 141.400 230.800 141.400 L 233.000 141.400 233.311 126.416 C 233.657 109.709,233.717 110.398,231.913 110.405 C 229.454 110.416,228.905 110.759,228.448 112.576 C 227.565 116.080,223.041 117.506,220.113 115.203 C 219.552 114.761,218.794 114.400,218.431 114.400 C 218.067 114.400,217.056 114.034,216.185 113.586 C 215.313 113.138,213.790 112.576,212.800 112.336 C 211.810 112.096,210.588 111.644,210.085 111.331 C 208.181 110.147,197.012 109.646,189.674 110.416 M276.800 110.425 C 275.370 110.601,273.487 111.118,272.615 111.573 C 271.744 112.028,270.646 112.400,270.177 112.400 C 269.707 112.400,268.930 112.740,268.451 113.156 C 267.972 113.571,266.999 114.147,266.290 114.436 C 265.580 114.724,264.765 115.284,264.477 115.680 C 264.190 116.076,263.771 116.400,263.546 116.400 C 263.195 116.400,261.781 117.804,259.437 120.479 C 259.110 120.852,258.540 121.743,258.169 122.459 C 257.799 123.175,257.276 123.981,257.007 124.251 C 256.737 124.520,256.404 125.567,256.265 126.577 C 256.127 127.587,255.699 128.996,255.314 129.707 C 254.312 131.559,254.299 140.418,255.296 142.258 C 255.670 142.950,256.094 144.250,256.238 145.147 C 256.381 146.044,256.927 147.358,257.449 148.067 C 257.972 148.776,258.400 149.564,258.400 149.818 C 258.400 150.678,263.898 156.439,266.166 157.954 C 268.750 159.681,270.522 160.735,272.000 161.426 C 272.770 161.785,273.670 162.309,274.000 162.589 C 274.330 162.870,275.320 163.324,276.200 163.600 C 277.080 163.876,278.070 164.332,278.400 164.613 C 278.730 164.895,279.810 165.339,280.800 165.599 C 281.790 165.860,283.140 166.398,283.800 166.794 C 284.460 167.191,285.755 167.639,286.677 167.789 C 287.599 167.939,288.559 168.310,288.810 168.613 C 289.062 168.915,290.242 169.446,291.434 169.793 C 292.625 170.139,293.600 170.573,293.600 170.757 C 293.600 170.941,294.410 171.401,295.400 171.779 C 296.390 172.157,297.200 172.617,297.200 172.802 C 297.200 172.987,297.829 173.345,298.597 173.599 C 299.365 173.853,300.130 174.276,300.297 174.540 C 300.464 174.803,301.050 175.308,301.600 175.660 C 302.959 176.531,306.400 179.922,306.400 180.390 C 306.400 180.598,306.725 181.091,307.123 181.484 C 312.390 186.695,308.848 202.427,301.912 204.628 C 301.431 204.781,300.791 205.152,300.491 205.452 C 300.190 205.753,299.462 206.104,298.872 206.233 C 298.282 206.362,296.556 206.836,295.035 207.287 C 292.036 208.176,284.163 208.165,283.085 207.271 C 282.803 207.037,281.430 206.661,280.033 206.436 C 278.636 206.211,277.202 205.769,276.847 205.453 C 276.491 205.138,275.570 204.588,274.800 204.231 C 270.490 202.236,265.540 197.468,263.763 193.600 C 263.410 192.830,262.885 191.930,262.597 191.600 C 262.310 191.270,261.861 190.190,261.600 189.200 C 261.339 188.210,260.877 187.121,260.573 186.779 C 260.268 186.438,259.831 184.832,259.601 183.210 C 259.371 181.589,259.001 180.042,258.778 179.773 C 258.555 179.505,258.261 178.321,258.125 177.142 C 257.851 174.765,257.550 174.412,255.800 174.412 C 253.629 174.412,253.697 173.956,253.436 190.200 C 253.302 198.560,253.089 206.698,252.964 208.284 C 252.742 211.092,252.762 211.175,253.712 211.414 C 255.818 211.942,257.305 211.483,257.767 210.162 C 259.210 206.037,262.735 204.673,266.594 206.744 C 267.471 207.215,268.479 207.600,268.835 207.600 C 269.190 207.600,270.327 208.050,271.362 208.600 C 272.396 209.150,273.735 209.600,274.337 209.600 C 274.938 209.600,276.143 209.963,277.013 210.407 C 280.885 212.381,302.992 212.586,305.130 210.668 C 305.499 210.338,306.520 209.946,307.400 209.796 C 308.280 209.647,309.453 209.207,310.008 208.819 C 310.562 208.430,311.441 207.977,311.961 207.812 C 314.310 207.067,320.102 201.662,321.550 198.863 C 321.853 198.278,322.331 197.530,322.613 197.200 C 322.895 196.870,323.334 195.790,323.589 194.800 C 323.844 193.810,324.423 191.881,324.876 190.513 C 325.787 187.761,325.815 179.026,324.916 177.937 C 324.673 177.642,324.206 176.373,323.879 175.117 C 323.552 173.861,322.906 172.352,322.442 171.763 C 321.979 171.174,321.600 170.445,321.600 170.143 C 321.600 169.842,321.150 169.203,320.600 168.725 C 320.050 168.247,319.600 167.690,319.600 167.488 C 319.600 166.952,316.134 163.737,313.000 161.367 C 311.097 159.928,308.515 158.441,307.468 158.179 C 306.845 158.024,306.241 157.652,306.127 157.353 C 306.012 157.054,305.224 156.622,304.377 156.394 C 303.529 156.166,302.550 155.693,302.200 155.343 C 301.850 154.993,300.810 154.537,299.888 154.330 C 298.966 154.123,297.939 153.719,297.606 153.433 C 297.273 153.147,296.100 152.694,295.000 152.426 C 293.900 152.159,292.460 151.613,291.800 151.213 C 291.140 150.813,290.027 150.365,289.328 150.217 C 288.628 150.070,287.842 149.691,287.581 149.377 C 287.320 149.063,286.363 148.608,285.453 148.366 C 284.544 148.124,283.530 147.690,283.200 147.403 C 282.870 147.115,281.925 146.601,281.100 146.260 C 280.275 145.920,279.600 145.464,279.600 145.247 C 279.600 145.031,279.215 144.732,278.745 144.583 C 276.999 144.028,271.600 139.185,271.600 138.173 C 271.600 137.992,271.144 137.185,270.586 136.380 C 269.442 134.728,269.034 126.118,270.000 124.000 C 273.654 115.984,284.347 111.725,293.096 114.800 C 294.348 115.240,295.739 115.603,296.186 115.606 C 296.634 115.609,297.450 115.874,298.000 116.195 C 298.550 116.516,299.630 117.073,300.400 117.432 C 301.170 117.792,302.070 118.328,302.400 118.623 C 302.730 118.918,303.630 119.705,304.400 120.371 C 306.268 121.985,306.172 121.890,308.426 124.393 C 309.512 125.600,310.400 126.744,310.400 126.936 C 310.400 127.128,310.850 127.819,311.400 128.473 C 311.950 129.127,312.406 130.053,312.412 130.531 C 312.419 131.009,312.868 132.120,313.410 133.000 C 313.953 133.880,314.401 135.230,314.407 136.000 C 314.441 140.063,315.574 141.711,318.200 141.518 L 319.800 141.400 320.003 126.200 C 320.137 116.209,320.068 110.899,319.803 110.706 C 318.610 109.837,316.000 110.644,316.000 111.883 C 316.000 115.265,311.100 117.345,307.560 115.467 C 306.592 114.953,305.287 114.405,304.660 114.249 C 304.033 114.093,303.043 113.631,302.460 113.222 C 301.877 112.814,300.595 112.363,299.610 112.221 C 298.626 112.078,297.522 111.692,297.157 111.361 C 295.856 110.184,283.408 109.612,276.800 110.425 M74.421 112.600 C 74.249 112.820,73.995 115.430,73.856 118.400 C 73.717 121.370,73.424 124.880,73.206 126.200 C 72.987 127.520,72.620 131.741,72.390 135.581 C 72.160 139.420,71.888 142.646,71.785 142.748 C 71.345 143.188,73.022 144.400,74.071 144.400 C 74.950 144.400,75.317 144.144,75.647 143.300 C 75.884 142.695,76.330 141.660,76.638 141.000 C 76.946 140.340,77.381 138.821,77.603 137.623 C 77.826 136.426,78.273 135.043,78.597 134.549 C 78.920 134.055,79.375 132.805,79.607 131.771 C 79.838 130.737,80.382 129.441,80.814 128.891 C 81.246 128.342,81.603 127.691,81.607 127.446 C 81.626 126.269,85.803 121.008,87.600 119.896 C 88.370 119.420,89.223 118.813,89.495 118.549 C 91.681 116.423,103.431 115.431,105.222 117.222 C 106.225 118.225,106.468 196.320,105.474 197.811 C 105.185 198.245,104.739 199.320,104.484 200.200 C 103.900 202.213,101.747 203.983,99.246 204.506 C 98.231 204.719,97.170 205.078,96.889 205.304 C 96.608 205.531,94.302 205.845,91.765 206.002 C 86.664 206.318,86.284 206.494,86.471 208.449 L 86.600 209.800 113.721 209.903 C 142.730 210.013,142.400 210.035,142.400 208.000 C 142.400 206.402,141.477 206.004,137.726 205.982 C 136.007 205.973,133.880 205.708,133.000 205.394 C 132.120 205.079,130.590 204.700,129.600 204.551 C 127.132 204.179,124.305 201.241,123.704 198.423 C 122.934 194.815,123.357 117.731,124.152 116.853 C 125.051 115.860,130.248 115.719,133.000 116.612 C 133.880 116.898,135.615 117.336,136.855 117.585 C 138.111 117.837,139.424 118.384,139.817 118.819 C 140.206 119.249,140.721 119.598,140.962 119.596 C 141.633 119.590,145.891 124.367,146.459 125.764 C 146.736 126.444,147.176 127.180,147.437 127.400 C 147.698 127.620,148.134 128.520,148.406 129.400 C 148.679 130.280,149.128 131.270,149.406 131.600 C 149.683 131.930,150.117 133.188,150.371 134.395 C 150.625 135.602,151.079 136.967,151.382 137.428 C 151.684 137.889,152.046 139.152,152.187 140.233 C 152.631 143.638,152.743 143.898,153.897 144.217 C 157.684 145.267,158.289 143.756,156.784 137.000 C 156.149 134.151,155.938 131.356,155.769 123.600 C 155.652 118.210,155.483 113.440,155.395 113.000 C 155.213 112.091,75.125 111.695,74.421 112.600 " stroke="none" fill="#2b4861" fill-rule="evenodd"></path><path id="path1" d="M0.000 200.000 L 0.000 400.000 200.000 400.000 L 400.000 400.000 400.000 200.000 L 400.000 0.000 200.000 0.000 L 0.000 0.000 0.000 200.000 M291.721 108.720 C 291.984 108.931,293.590 109.230,295.288 109.385 C 297.300 109.568,298.694 109.915,299.288 110.382 C 299.790 110.776,300.960 111.226,301.888 111.382 C 302.817 111.538,304.017 112.013,304.556 112.437 C 305.094 112.860,306.135 113.319,306.868 113.456 C 307.600 113.593,308.862 114.067,309.671 114.510 C 311.036 115.257,311.190 115.267,311.800 114.657 C 312.161 114.296,312.605 114.000,312.785 114.000 C 312.966 114.000,313.387 113.325,313.721 112.500 C 314.817 109.797,315.697 109.200,318.587 109.200 C 322.534 109.200,322.548 109.229,322.213 116.974 C 322.060 120.508,321.880 127.445,321.814 132.389 L 321.693 141.377 320.361 142.489 C 318.832 143.766,317.918 143.858,315.749 142.955 C 313.768 142.130,313.746 142.087,313.426 138.424 C 313.230 136.179,312.960 135.172,312.431 134.720 C 312.032 134.378,311.581 133.266,311.428 132.249 C 311.276 131.232,310.972 130.400,310.753 130.400 C 310.534 130.400,310.007 129.614,309.582 128.653 C 309.157 127.692,308.537 126.680,308.205 126.404 C 307.872 126.128,307.600 125.650,307.600 125.342 C 307.600 125.035,307.150 124.578,306.600 124.327 C 306.050 124.077,305.600 123.614,305.600 123.298 C 305.600 122.983,305.262 122.637,304.849 122.529 C 304.436 122.421,303.899 121.897,303.657 121.366 C 303.415 120.835,302.881 120.400,302.471 120.400 C 302.060 120.400,301.407 120.050,301.021 119.623 C 300.634 119.195,299.788 118.729,299.141 118.587 C 298.494 118.445,297.627 117.966,297.215 117.524 C 295.420 115.597,279.957 115.643,278.019 117.581 C 277.555 118.045,276.657 118.529,276.023 118.655 C 275.336 118.793,274.788 119.204,274.665 119.673 C 274.552 120.105,274.103 120.553,273.667 120.667 C 273.156 120.800,272.787 121.343,272.627 122.196 C 272.491 122.924,271.988 124.015,271.511 124.622 C 270.219 126.265,270.226 132.871,271.522 134.690 C 272.005 135.368,272.400 136.203,272.400 136.544 C 272.400 137.558,278.745 143.600,279.811 143.600 C 280.052 143.600,280.608 143.935,281.047 144.343 C 281.486 144.752,282.494 145.301,283.287 145.563 C 284.080 145.825,284.821 146.277,284.933 146.569 C 285.045 146.860,285.826 147.224,286.668 147.377 C 287.511 147.530,288.830 148.074,289.600 148.584 C 290.370 149.095,291.684 149.633,292.521 149.779 C 293.358 149.925,294.136 150.289,294.251 150.589 C 294.366 150.888,295.343 151.255,296.422 151.403 C 297.502 151.552,298.800 151.999,299.307 152.398 C 299.813 152.797,300.966 153.322,301.867 153.564 C 302.769 153.807,303.720 154.263,303.981 154.577 C 304.242 154.891,304.974 155.263,305.609 155.402 C 306.243 155.541,307.176 155.978,307.681 156.373 C 308.187 156.767,309.050 157.229,309.600 157.400 C 310.150 157.570,311.140 158.127,311.800 158.638 C 314.121 160.434,315.311 161.409,316.260 162.291 C 316.787 162.781,317.574 163.372,318.009 163.605 C 318.444 163.838,318.800 164.292,318.800 164.614 C 318.800 164.936,319.064 165.200,319.386 165.200 C 319.708 165.200,320.187 165.605,320.449 166.100 C 320.712 166.595,321.258 167.235,321.663 167.523 C 322.069 167.810,322.400 168.279,322.400 168.564 C 322.400 168.850,322.833 169.550,323.361 170.120 C 323.890 170.691,324.446 171.887,324.596 172.779 C 324.747 173.670,325.013 174.400,325.187 174.400 C 326.853 174.400,327.325 191.956,325.706 193.696 C 325.243 194.193,324.736 195.300,324.578 196.155 C 324.420 197.010,324.000 198.002,323.645 198.360 C 323.290 198.718,322.765 199.533,322.479 200.171 C 321.444 202.475,315.642 207.952,313.525 208.624 C 313.083 208.764,312.403 209.197,312.015 209.585 C 311.627 209.973,310.610 210.420,309.755 210.579 C 308.900 210.738,307.888 211.148,307.506 211.490 C 307.109 211.846,305.313 212.314,303.306 212.585 C 301.378 212.844,299.260 213.298,298.600 213.593 C 296.973 214.319,285.893 214.324,284.200 213.598 C 283.540 213.316,281.323 212.858,279.274 212.581 C 277.107 212.288,275.262 211.818,274.864 211.458 C 274.487 211.117,273.374 210.718,272.390 210.572 C 271.405 210.425,270.150 210.012,269.600 209.653 C 266.519 207.642,261.749 207.123,260.501 208.663 C 259.995 209.288,259.405 210.017,259.190 210.283 C 258.976 210.549,258.800 210.941,258.800 211.155 C 258.800 212.698,253.164 213.603,252.033 212.240 C 251.447 211.534,251.412 175.500,251.996 174.407 C 252.822 172.864,258.755 173.109,259.755 174.727 C 259.894 174.952,260.203 177.082,260.443 179.461 C 260.736 182.378,261.108 184.114,261.585 184.793 C 261.974 185.347,262.415 186.639,262.565 187.665 C 262.716 188.690,263.082 189.622,263.379 189.737 C 263.676 189.851,264.144 190.632,264.418 191.472 C 264.692 192.312,265.348 193.540,265.877 194.200 C 269.775 199.067,271.203 200.527,273.000 201.484 C 273.660 201.835,274.380 202.352,274.600 202.633 C 274.820 202.913,275.759 203.341,276.687 203.583 C 277.614 203.825,278.520 204.286,278.700 204.606 C 279.652 206.309,296.814 206.191,299.005 204.467 C 299.612 203.990,300.329 203.600,300.600 203.600 C 301.387 203.600,305.163 200.350,305.440 199.434 C 305.579 198.975,306.048 198.210,306.484 197.734 C 308.192 195.866,308.161 184.875,306.443 183.046 C 305.979 182.552,305.600 181.970,305.600 181.752 C 305.600 181.187,303.134 178.597,302.300 178.286 C 301.915 178.143,301.600 177.753,301.600 177.420 C 301.600 177.087,301.145 176.701,300.589 176.562 C 300.034 176.422,299.414 176.000,299.213 175.624 C 299.012 175.248,298.135 174.727,297.265 174.467 C 296.395 174.206,295.584 173.734,295.462 173.418 C 295.341 173.103,294.601 172.724,293.818 172.577 C 293.034 172.430,291.983 171.987,291.482 171.593 C 290.982 171.199,289.834 170.678,288.933 170.436 C 288.031 170.193,287.073 169.729,286.804 169.405 C 286.536 169.081,285.418 168.697,284.321 168.552 C 283.224 168.406,282.028 167.973,281.663 167.589 C 281.298 167.205,280.256 166.768,279.346 166.618 C 278.436 166.468,277.323 166.001,276.871 165.580 C 276.419 165.159,275.343 164.656,274.480 164.462 C 273.616 164.268,272.525 163.725,272.055 163.255 C 271.585 162.785,270.862 162.400,270.449 162.400 C 270.036 162.400,269.465 162.120,269.181 161.777 C 268.896 161.434,268.079 160.909,267.364 160.611 C 266.649 160.312,265.864 159.692,265.618 159.234 C 265.373 158.775,264.918 158.400,264.609 158.400 C 264.299 158.400,263.810 158.069,263.523 157.663 C 263.235 157.258,262.595 156.712,262.100 156.449 C 261.605 156.187,261.200 155.720,261.200 155.413 C 261.200 155.105,260.849 154.743,260.420 154.606 C 259.992 154.470,259.530 154.008,259.393 153.579 C 259.257 153.150,258.798 152.613,258.373 152.386 C 257.948 152.158,257.600 151.722,257.600 151.417 C 257.600 151.111,257.173 150.353,256.652 149.731 C 256.130 149.109,255.568 147.977,255.402 147.216 C 255.235 146.454,254.751 145.361,254.326 144.785 C 253.259 143.342,253.364 128.179,254.449 126.941 C 254.806 126.533,255.220 125.526,255.367 124.701 C 255.515 123.877,256.078 122.726,256.618 122.143 C 257.158 121.560,257.600 120.850,257.600 120.564 C 257.600 120.279,257.931 119.810,258.337 119.523 C 258.742 119.235,259.288 118.595,259.551 118.100 C 259.813 117.605,260.292 117.200,260.614 117.200 C 260.936 117.200,261.200 116.935,261.200 116.610 C 261.200 116.286,261.718 115.753,262.352 115.425 C 262.985 115.098,263.609 114.553,263.739 114.215 C 263.869 113.877,264.216 113.600,264.510 113.600 C 264.804 113.600,265.642 113.159,266.372 112.621 C 267.101 112.082,268.261 111.519,268.949 111.369 C 269.637 111.219,270.599 110.783,271.087 110.401 C 271.629 109.976,273.099 109.595,274.874 109.420 C 276.470 109.263,278.141 108.930,278.588 108.680 C 280.356 107.691,290.474 107.722,291.721 108.720 M204.292 108.552 C 205.121 108.855,207.204 109.285,208.919 109.507 C 210.671 109.734,212.341 110.185,212.730 110.536 C 213.110 110.880,214.209 111.288,215.171 111.442 C 216.134 111.596,217.250 112.050,217.651 112.451 C 218.052 112.852,218.879 113.289,219.490 113.422 C 221.276 113.813,222.800 114.469,222.800 114.849 C 222.800 115.042,223.340 115.200,224.000 115.200 C 224.808 115.200,225.200 115.001,225.200 114.591 C 225.200 114.257,225.638 113.783,226.174 113.539 C 226.871 113.222,227.222 112.654,227.410 111.543 C 227.727 109.663,228.476 109.200,231.200 109.200 C 235.103 109.200,234.823 107.848,234.573 125.512 C 234.316 143.723,234.458 142.536,232.463 143.134 C 229.521 144.015,227.200 143.041,227.200 140.926 C 227.200 140.615,226.918 139.814,226.572 139.147 C 226.227 138.479,225.769 136.841,225.554 135.506 C 225.339 134.171,224.832 132.658,224.427 132.143 C 224.022 131.628,223.572 130.575,223.427 129.803 C 223.282 129.032,222.994 128.400,222.787 128.400 C 222.580 128.400,221.983 127.725,221.461 126.900 C 220.342 125.132,215.859 120.400,215.302 120.400 C 215.090 120.400,214.431 119.950,213.838 119.400 C 213.244 118.850,212.432 118.400,212.033 118.400 C 211.634 118.400,210.839 118.031,210.266 117.580 C 207.739 115.593,193.172 115.559,191.068 117.536 C 190.562 118.011,189.883 118.400,189.558 118.400 C 189.233 118.400,188.295 119.165,187.473 120.100 C 186.651 121.035,185.710 122.088,185.383 122.439 C 183.475 124.489,183.743 135.053,185.756 137.154 C 186.330 137.753,186.800 138.364,186.800 138.512 C 186.800 138.659,187.452 139.369,188.249 140.090 C 189.045 140.810,190.089 141.793,190.569 142.272 C 191.048 142.752,191.931 143.268,192.530 143.418 C 193.129 143.568,193.839 144.000,194.109 144.377 C 194.379 144.754,195.218 145.276,195.974 145.536 C 196.730 145.797,197.630 146.261,197.974 146.568 C 198.318 146.875,199.374 147.332,200.321 147.584 C 201.267 147.836,202.134 148.284,202.248 148.580 C 202.361 148.875,203.239 149.235,204.199 149.379 C 205.158 149.523,206.413 150.009,206.986 150.460 C 207.559 150.911,208.786 151.375,209.714 151.491 C 210.641 151.608,211.760 152.025,212.200 152.419 C 212.640 152.813,213.679 153.261,214.510 153.414 C 215.340 153.567,216.240 154.002,216.510 154.380 C 216.779 154.759,217.621 155.191,218.381 155.340 C 219.140 155.490,220.130 155.947,220.581 156.357 C 221.031 156.766,222.075 157.318,222.900 157.582 C 223.725 157.846,224.400 158.279,224.400 158.543 C 224.400 158.808,224.895 159.242,225.500 159.509 C 228.886 160.999,236.400 168.608,236.400 170.546 C 236.400 170.841,236.827 171.544,237.350 172.108 C 238.005 172.815,238.389 173.847,238.587 175.438 C 238.746 176.706,239.173 178.198,239.538 178.754 C 240.483 180.197,240.485 188.076,239.540 189.800 C 239.178 190.461,238.750 192.059,238.589 193.353 C 238.415 194.739,238.004 195.996,237.588 196.412 C 237.199 196.801,236.764 197.652,236.621 198.304 C 236.478 198.956,235.919 199.874,235.380 200.342 C 234.841 200.811,234.400 201.454,234.400 201.770 C 234.400 202.087,234.059 202.454,233.643 202.586 C 233.227 202.718,232.790 203.194,232.673 203.643 C 232.555 204.092,232.086 204.557,231.630 204.676 C 231.173 204.796,230.800 205.147,230.800 205.457 C 230.800 205.766,230.370 206.183,229.845 206.383 C 229.320 206.582,228.428 207.208,227.863 207.773 C 227.299 208.338,226.586 208.800,226.280 208.800 C 225.974 208.800,225.405 209.152,225.016 209.582 C 224.626 210.013,223.519 210.483,222.554 210.628 C 221.589 210.772,220.800 211.022,220.800 211.181 C 220.800 211.759,218.828 212.349,215.946 212.633 C 214.328 212.792,212.373 213.195,211.602 213.528 C 209.585 214.398,198.738 214.374,196.783 213.494 C 196.022 213.152,193.904 212.694,192.076 212.476 C 190.223 212.256,188.452 211.816,188.076 211.484 C 187.704 211.156,186.590 210.757,185.600 210.597 C 183.862 210.317,182.416 209.763,182.000 209.218 C 181.405 208.438,174.988 207.270,174.369 207.829 C 174.021 208.143,173.545 208.400,173.311 208.400 C 172.790 208.400,172.400 209.346,172.400 210.610 C 172.400 212.834,167.133 213.754,165.018 211.900 L 163.992 211.000 164.596 207.035 C 165.048 204.065,165.200 199.523,165.200 188.935 C 165.200 172.249,165.029 172.901,169.286 173.346 C 172.365 173.668,172.243 173.545,172.559 176.626 C 172.708 178.082,173.106 179.696,173.444 180.211 C 173.782 180.727,174.236 182.431,174.453 183.999 C 174.699 185.774,175.118 187.118,175.563 187.563 C 175.957 187.957,176.399 189.033,176.546 189.954 C 176.694 190.876,177.067 191.728,177.376 191.846 C 177.685 191.965,178.211 192.744,178.545 193.579 C 178.879 194.413,179.433 195.204,179.776 195.335 C 180.119 195.467,180.400 195.787,180.400 196.047 C 180.400 196.628,185.467 201.600,186.059 201.600 C 186.293 201.600,187.019 202.050,187.673 202.600 C 188.327 203.150,189.298 203.600,189.831 203.600 C 190.364 203.600,191.165 203.965,191.612 204.412 C 193.477 206.277,210.095 206.305,211.954 204.446 C 212.375 204.025,213.278 203.558,213.963 203.408 C 214.647 203.258,215.391 202.790,215.617 202.367 C 215.843 201.945,216.296 201.600,216.624 201.600 C 216.952 201.600,217.393 201.145,217.604 200.590 C 217.815 200.034,218.246 199.480,218.561 199.359 C 218.877 199.238,219.345 198.262,219.603 197.190 C 219.860 196.117,220.324 195.029,220.635 194.771 C 221.597 193.973,221.416 187.001,220.400 185.709 C 219.960 185.150,219.600 184.283,219.600 183.784 C 219.600 182.411,214.285 176.400,213.072 176.400 C 212.782 176.400,212.153 175.950,211.675 175.400 C 211.197 174.850,210.472 174.400,210.065 174.400 C 209.657 174.400,208.998 174.039,208.598 173.598 C 208.199 173.157,207.190 172.613,206.354 172.388 C 205.519 172.163,204.576 171.719,204.257 171.400 C 203.939 171.082,202.928 170.653,202.011 170.447 C 201.093 170.241,200.041 169.801,199.671 169.470 C 199.302 169.139,198.280 168.746,197.400 168.596 C 196.520 168.447,195.317 167.986,194.727 167.571 C 194.137 167.156,192.882 166.643,191.938 166.431 C 190.994 166.219,190.028 165.780,189.791 165.456 C 189.554 165.132,188.680 164.739,187.849 164.583 C 187.017 164.427,186.036 163.986,185.669 163.603 C 185.301 163.220,184.312 162.684,183.472 162.413 C 182.632 162.141,181.852 161.680,181.740 161.388 C 181.628 161.095,181.055 160.661,180.468 160.423 C 178.127 159.473,172.479 154.464,171.389 152.371 C 171.094 151.805,170.571 151.108,170.226 150.822 C 169.882 150.536,169.600 149.999,169.600 149.629 C 169.600 149.258,169.170 148.372,168.644 147.659 C 168.048 146.852,167.581 145.506,167.404 144.092 C 167.248 142.843,166.868 141.461,166.560 141.022 C 165.792 139.925,165.791 132.610,166.559 131.139 C 166.863 130.555,167.242 128.960,167.401 127.594 C 167.585 126.008,167.958 124.842,168.434 124.366 C 168.844 123.956,169.286 123.198,169.415 122.682 C 169.545 122.166,170.089 121.234,170.625 120.610 C 171.161 119.986,171.600 119.351,171.600 119.199 C 171.600 118.419,177.670 113.200,178.577 113.200 C 178.822 113.200,179.310 112.864,179.661 112.454 C 180.012 112.044,180.977 111.581,181.804 111.426 C 182.632 111.270,183.780 110.802,184.355 110.384 C 185.011 109.907,186.442 109.524,188.200 109.354 C 189.740 109.205,191.355 108.840,191.789 108.542 C 192.889 107.787,202.220 107.794,204.292 108.552 M156.277 111.624 C 156.559 112.436,156.766 115.460,156.782 119.000 C 156.800 122.928,157.012 125.760,157.397 127.200 C 158.446 131.131,159.022 145.248,158.159 145.879 C 155.637 147.724,151.888 146.115,151.419 142.987 C 151.261 141.931,150.884 140.689,150.582 140.228 C 150.279 139.767,149.835 138.402,149.593 137.195 C 149.352 135.988,148.824 134.370,148.421 133.600 C 148.017 132.830,147.556 131.570,147.397 130.800 C 147.237 130.030,146.768 129.078,146.353 128.684 C 145.939 128.291,145.600 127.731,145.600 127.439 C 145.600 127.148,145.060 126.231,144.400 125.400 C 143.740 124.569,143.200 123.657,143.200 123.372 C 143.200 123.087,142.849 122.743,142.420 122.606 C 141.992 122.470,141.534 122.021,141.402 121.607 C 141.271 121.194,140.640 120.741,140.001 120.600 C 139.361 120.460,138.339 119.952,137.730 119.472 C 136.727 118.683,136.063 118.587,130.744 118.464 L 124.867 118.328 124.607 120.464 C 124.464 121.639,124.404 139.430,124.474 160.000 L 124.600 197.400 125.500 198.662 C 125.995 199.356,126.400 200.204,126.400 200.548 C 126.400 200.891,126.805 201.388,127.300 201.651 C 127.795 201.915,128.380 202.374,128.600 202.672 C 128.820 202.970,129.900 203.300,131.000 203.406 C 132.100 203.511,134.928 203.785,137.283 204.014 C 141.458 204.420,143.375 205.003,144.054 206.074 C 144.854 207.335,144.242 210.903,143.098 211.650 C 142.887 211.787,130.849 211.907,116.346 211.917 C 101.843 211.926,89.284 212.051,88.438 212.194 C 86.311 212.553,85.200 211.188,85.200 208.216 C 85.200 205.040,85.895 204.599,91.800 204.032 C 99.359 203.307,99.762 203.229,100.878 202.289 C 101.458 201.800,102.219 201.220,102.569 201.000 C 103.875 200.180,104.030 195.031,103.914 156.400 L 103.800 118.600 97.932 118.600 C 92.397 118.600,92.009 118.651,91.106 119.500 C 90.579 119.995,89.946 120.400,89.700 120.400 C 89.115 120.400,84.400 124.956,84.400 125.521 C 84.400 125.760,84.055 126.196,83.634 126.491 C 83.213 126.786,82.743 127.698,82.589 128.517 C 82.435 129.337,81.968 130.441,81.550 130.972 C 81.133 131.503,80.612 132.884,80.392 134.041 C 80.173 135.198,79.743 136.427,79.437 136.772 C 79.130 137.117,78.675 138.740,78.424 140.378 C 77.906 143.762,76.792 145.886,75.343 146.250 C 73.999 146.587,70.838 146.198,70.265 145.625 C 69.592 144.952,69.785 140.486,70.568 138.614 C 71.104 137.333,71.303 134.660,71.603 124.712 C 71.965 112.704,72.153 111.202,73.377 110.517 C 73.688 110.343,92.361 110.211,114.872 110.224 L 155.800 110.249 156.277 111.624 M210.607 232.804 C 215.243 235.048,215.729 239.583,211.666 242.682 C 206.825 246.375,199.986 240.705,203.129 235.603 C 205.078 232.438,207.770 231.430,210.607 232.804 M197.503 236.112 C 198.230 236.770,198.269 237.341,198.161 245.706 C 198.098 250.598,198.036 260.731,198.023 268.224 C 198.005 278.790,197.882 282.008,197.476 282.563 C 196.327 284.135,189.196 284.287,188.377 282.757 C 187.942 281.944,187.679 236.588,188.106 236.160 C 189.222 235.045,196.283 235.008,197.503 236.112 M132.869 247.484 C 134.338 247.922,135.835 248.578,136.198 248.941 C 136.561 249.303,137.041 249.600,137.265 249.600 C 137.847 249.600,142.400 254.374,142.400 254.984 C 142.400 255.263,142.758 255.948,143.197 256.505 C 145.563 259.513,145.609 271.497,143.264 274.136 C 142.905 274.541,142.428 275.287,142.205 275.793 C 139.527 281.876,124.749 286.850,120.137 283.222 C 119.562 282.770,118.691 282.400,118.201 282.400 C 116.325 282.400,110.828 276.973,109.734 274.040 C 109.356 273.028,108.778 271.776,108.450 271.257 C 107.393 269.590,107.568 261.011,108.700 259.006 C 109.195 258.129,109.603 257.139,109.607 256.806 C 109.627 255.198,115.140 249.200,116.599 249.200 C 116.893 249.200,117.199 249.003,117.279 248.762 C 117.909 246.873,128.046 246.042,132.869 247.484 M171.378 246.765 C 171.503 246.966,172.368 247.257,173.302 247.412 C 176.167 247.888,179.843 250.764,180.573 253.100 C 180.727 253.595,181.008 254.000,181.196 254.000 C 182.427 254.000,183.156 261.269,183.070 272.691 L 182.999 281.982 182.000 282.927 C 181.076 283.799,180.747 283.857,177.688 283.692 C 173.063 283.444,173.199 283.811,173.205 271.520 L 173.210 261.800 172.105 259.326 C 170.504 255.742,167.583 254.602,163.171 255.840 C 161.270 256.374,160.699 256.757,159.745 258.140 L 158.600 259.800 158.400 271.039 C 158.163 284.386,158.446 283.602,153.851 283.595 C 147.570 283.584,148.000 284.966,148.000 264.804 L 148.000 248.445 148.889 247.823 C 150.727 246.536,156.953 246.958,158.120 248.449 L 159.097 249.699 160.642 248.649 C 161.491 248.072,162.549 247.590,162.993 247.577 C 163.437 247.565,164.430 247.316,165.200 247.025 C 166.829 246.409,171.049 246.231,171.378 246.765 M241.854 246.998 C 242.484 247.326,243.450 247.596,244.000 247.598 C 245.457 247.603,249.133 250.315,250.698 252.540 C 252.837 255.580,253.310 258.577,253.488 270.193 C 253.696 283.831,253.790 283.600,248.024 283.600 C 243.483 283.600,243.840 284.548,243.579 271.800 L 243.357 261.000 242.179 258.819 C 241.070 256.769,240.850 256.591,238.497 255.842 L 235.995 255.044 233.297 255.938 C 230.672 256.808,230.571 256.892,229.495 259.116 L 228.389 261.400 228.377 271.400 C 228.368 278.545,228.219 281.739,227.858 282.586 L 227.352 283.772 223.776 283.658 C 220.612 283.557,220.086 283.432,219.210 282.573 L 218.220 281.602 218.210 265.151 L 218.200 248.701 219.154 247.950 C 219.921 247.347,220.783 247.201,223.554 247.206 C 227.360 247.213,227.628 247.306,228.460 248.914 L 229.037 250.028 230.819 248.822 C 231.798 248.158,232.960 247.601,233.400 247.585 C 233.840 247.568,234.830 247.316,235.600 247.025 C 237.531 246.294,240.481 246.281,241.854 246.998 M279.251 247.162 C 283.214 248.176,290.000 253.031,290.000 254.854 C 290.000 255.031,290.445 256.149,290.988 257.337 C 291.706 258.906,292.048 260.525,292.237 263.249 C 292.619 268.742,293.585 268.365,278.775 268.494 L 266.600 268.600 266.477 269.663 C 266.401 270.317,266.650 271.010,267.123 271.463 C 267.546 271.868,268.081 272.566,268.313 273.013 C 270.023 276.309,276.236 276.432,279.562 273.237 L 281.265 271.600 285.404 271.600 C 290.878 271.600,291.285 271.947,289.963 275.483 C 289.301 277.254,284.177 281.851,282.400 282.268 C 281.850 282.397,280.838 282.840,280.150 283.253 C 278.299 284.364,270.735 284.386,268.541 283.286 C 267.694 282.861,266.461 282.384,265.803 282.225 C 264.424 281.892,264.305 281.798,260.707 278.186 C 258.714 276.184,257.948 275.107,257.758 274.041 C 257.618 273.248,257.131 271.984,256.676 271.231 C 255.619 269.481,255.495 261.431,256.501 259.896 C 256.828 259.397,257.228 258.361,257.391 257.594 C 257.928 255.060,261.839 249.955,263.688 249.376 C 264.189 249.219,265.029 248.755,265.554 248.345 C 266.079 247.935,266.979 247.590,267.554 247.577 C 268.129 247.565,269.230 247.316,270.000 247.025 C 272.069 246.242,275.876 246.299,279.251 247.162 M212.540 247.949 C 213.134 248.443,213.200 250.158,213.200 265.027 L 213.200 281.555 212.300 282.565 C 211.033 283.987,204.986 284.235,204.101 282.901 C 203.212 281.563,203.210 248.694,204.099 247.711 C 204.892 246.833,211.420 247.017,212.540 247.949 M270.527 255.718 C 268.769 256.644,266.841 259.064,266.689 260.533 C 266.601 261.394,266.650 261.400,274.000 261.400 L 281.400 261.400 281.531 260.254 C 281.947 256.617,274.581 253.581,270.527 255.718 M122.700 256.283 C 121.655 256.631,120.800 257.046,120.800 257.203 C 120.800 257.361,120.272 258.155,119.626 258.967 C 117.556 261.572,117.505 269.505,119.545 271.545 C 120.015 272.015,120.400 272.561,120.400 272.758 C 120.400 273.575,124.524 275.267,126.560 275.285 C 129.482 275.311,133.994 272.135,134.002 270.046 C 134.004 269.691,134.274 268.884,134.602 268.254 C 135.258 266.998,135.420 262.983,134.831 262.619 C 134.627 262.493,134.172 261.538,133.819 260.495 C 132.362 256.191,127.968 254.526,122.700 256.283 " stroke="none" fill="#fbfbfb" fill-rule="evenodd"></path><path id="path2" d="M283.200 108.013 C 281.110 108.130,279.034 108.430,278.588 108.680 C 278.141 108.930,276.470 109.263,274.874 109.420 C 273.099 109.595,271.629 109.976,271.087 110.401 C 270.599 110.783,269.637 111.219,268.949 111.369 C 268.261 111.519,267.101 112.082,266.372 112.621 C 265.642 113.159,264.804 113.600,264.510 113.600 C 264.216 113.600,263.869 113.877,263.739 114.215 C 263.609 114.553,262.985 115.098,262.352 115.425 C 261.718 115.753,261.200 116.286,261.200 116.610 C 261.200 116.935,260.936 117.200,260.614 117.200 C 260.292 117.200,259.813 117.605,259.551 118.100 C 259.288 118.595,258.742 119.235,258.337 119.523 C 257.931 119.810,257.600 120.279,257.600 120.564 C 257.600 120.850,257.158 121.560,256.618 122.143 C 256.078 122.726,255.515 123.877,255.367 124.701 C 255.220 125.526,254.806 126.533,254.449 126.941 C 253.364 128.179,253.259 143.342,254.326 144.785 C 254.751 145.361,255.235 146.454,255.402 147.216 C 255.568 147.977,256.130 149.109,256.652 149.731 C 257.173 150.353,257.600 151.111,257.600 151.417 C 257.600 151.722,257.948 152.158,258.373 152.386 C 258.798 152.613,259.257 153.150,259.393 153.579 C 259.530 154.008,259.992 154.470,260.420 154.606 C 260.849 154.743,261.200 155.105,261.200 155.413 C 261.200 155.720,261.605 156.187,262.100 156.449 C 262.595 156.712,263.235 157.258,263.523 157.663 C 263.810 158.069,264.299 158.400,264.609 158.400 C 264.918 158.400,265.373 158.775,265.618 159.234 C 265.864 159.692,266.649 160.312,267.364 160.611 C 268.079 160.909,268.896 161.434,269.181 161.777 C 269.465 162.120,270.036 162.400,270.449 162.400 C 270.862 162.400,271.585 162.785,272.055 163.255 C 272.525 163.725,273.616 164.268,274.480 164.462 C 275.343 164.656,276.419 165.159,276.871 165.580 C 277.323 166.001,278.436 166.468,279.346 166.618 C 280.256 166.768,281.298 167.205,281.663 167.589 C 282.028 167.973,283.224 168.406,284.321 168.552 C 285.418 168.697,286.536 169.081,286.804 169.405 C 287.073 169.729,288.031 170.193,288.933 170.436 C 289.834 170.678,290.982 171.199,291.482 171.593 C 291.983 171.987,293.034 172.430,293.818 172.577 C 294.601 172.724,295.341 173.103,295.462 173.418 C 295.584 173.734,296.395 174.206,297.265 174.467 C 298.135 174.727,299.012 175.248,299.213 175.624 C 299.414 176.000,300.034 176.422,300.589 176.562 C 301.145 176.701,301.600 177.087,301.600 177.420 C 301.600 177.753,301.915 178.143,302.300 178.286 C 303.134 178.597,305.600 181.187,305.600 181.752 C 305.600 181.970,305.979 182.552,306.443 183.046 C 308.161 184.875,308.192 195.866,306.484 197.734 C 306.048 198.210,305.579 198.975,305.440 199.434 C 305.163 200.350,301.387 203.600,300.600 203.600 C 300.329 203.600,299.612 203.990,299.005 204.467 C 296.814 206.191,279.652 206.309,278.700 204.606 C 278.520 204.286,277.614 203.825,276.687 203.583 C 275.759 203.341,274.820 202.913,274.600 202.633 C 274.380 202.352,273.660 201.835,273.000 201.484 C 271.203 200.527,269.775 199.067,265.877 194.200 C 265.348 193.540,264.692 192.312,264.418 191.472 C 264.144 190.632,263.676 189.851,263.379 189.737 C 263.082 189.622,262.716 188.690,262.565 187.665 C 262.415 186.639,261.974 185.347,261.585 184.793 C 261.108 184.114,260.736 182.378,260.443 179.461 C 260.203 177.082,259.894 174.952,259.755 174.727 C 258.755 173.109,252.822 172.864,251.996 174.407 C 251.412 175.500,251.447 211.534,252.033 212.240 C 253.164 213.603,258.800 212.698,258.800 211.155 C 258.800 210.941,258.976 210.549,259.190 210.283 C 259.405 210.017,259.995 209.288,260.501 208.663 C 261.749 207.123,266.519 207.642,269.600 209.653 C 270.150 210.012,271.405 210.425,272.390 210.572 C 273.374 210.718,274.487 211.117,274.864 211.458 C 275.262 211.818,277.107 212.288,279.274 212.581 C 281.323 212.858,283.540 213.316,284.200 213.598 C 285.893 214.324,296.973 214.319,298.600 213.593 C 299.260 213.298,301.378 212.844,303.306 212.585 C 305.313 212.314,307.109 211.846,307.506 211.490 C 307.888 211.148,308.900 210.738,309.755 210.579 C 310.610 210.420,311.627 209.973,312.015 209.585 C 312.403 209.197,313.083 208.764,313.525 208.624 C 315.642 207.952,321.444 202.475,322.479 200.171 C 322.765 199.533,323.290 198.718,323.645 198.360 C 324.000 198.002,324.420 197.010,324.578 196.155 C 324.736 195.300,325.243 194.193,325.706 193.696 C 327.325 191.956,326.853 174.400,325.187 174.400 C 325.013 174.400,324.747 173.670,324.596 172.779 C 324.446 171.887,323.890 170.691,323.361 170.120 C 322.833 169.550,322.400 168.850,322.400 168.564 C 322.400 168.279,322.069 167.810,321.663 167.523 C 321.258 167.235,320.712 166.595,320.449 166.100 C 320.187 165.605,319.708 165.200,319.386 165.200 C 319.064 165.200,318.800 164.936,318.800 164.614 C 318.800 164.292,318.444 163.838,318.009 163.605 C 317.574 163.372,316.787 162.781,316.260 162.291 C 315.311 161.409,314.121 160.434,311.800 158.638 C 311.140 158.127,310.150 157.570,309.600 157.400 C 309.050 157.229,308.187 156.767,307.681 156.373 C 307.176 155.978,306.243 155.541,305.609 155.402 C 304.974 155.263,304.242 154.891,303.981 154.577 C 303.720 154.263,302.769 153.807,301.867 153.564 C 300.966 153.322,299.813 152.797,299.307 152.398 C 298.800 151.999,297.502 151.552,296.422 151.403 C 295.343 151.255,294.366 150.888,294.251 150.589 C 294.136 150.289,293.358 149.925,292.521 149.779 C 291.684 149.633,290.370 149.095,289.600 148.584 C 288.830 148.074,287.511 147.530,286.668 147.377 C 285.826 147.224,285.045 146.860,284.933 146.569 C 284.821 146.277,284.080 145.825,283.287 145.563 C 282.494 145.301,281.486 144.752,281.047 144.343 C 280.608 143.935,280.052 143.600,279.811 143.600 C 278.745 143.600,272.400 137.558,272.400 136.544 C 272.400 136.203,272.005 135.368,271.522 134.690 C 270.226 132.871,270.219 126.265,271.511 124.622 C 271.988 124.015,272.491 122.924,272.627 122.196 C 272.787 121.343,273.156 120.800,273.667 120.667 C 274.103 120.553,274.552 120.105,274.665 119.673 C 274.788 119.204,275.336 118.793,276.023 118.655 C 276.657 118.529,277.555 118.045,278.019 117.581 C 279.957 115.643,295.420 115.597,297.215 117.524 C 297.627 117.966,298.494 118.445,299.141 118.587 C 299.788 118.729,300.634 119.195,301.021 119.623 C 301.407 120.050,302.060 120.400,302.471 120.400 C 302.881 120.400,303.415 120.835,303.657 121.366 C 303.899 121.897,304.436 122.421,304.849 122.529 C 305.262 122.637,305.600 122.983,305.600 123.298 C 305.600 123.614,306.050 124.077,306.600 124.327 C 307.150 124.578,307.600 125.035,307.600 125.342 C 307.600 125.650,307.872 126.128,308.205 126.404 C 308.537 126.680,309.157 127.692,309.582 128.653 C 310.007 129.614,310.534 130.400,310.753 130.400 C 310.972 130.400,311.276 131.232,311.428 132.249 C 311.581 133.266,312.032 134.378,312.431 134.720 C 312.960 135.172,313.230 136.179,313.426 138.424 C 313.746 142.087,313.768 142.130,315.749 142.955 C 317.918 143.858,318.832 143.766,320.361 142.489 L 321.693 141.377 321.814 132.389 C 321.880 127.445,322.060 120.508,322.213 116.974 C 322.548 109.229,322.534 109.200,318.587 109.200 C 315.697 109.200,314.817 109.797,313.721 112.500 C 313.387 113.325,312.966 114.000,312.785 114.000 C 312.605 114.000,312.161 114.296,311.800 114.657 C 311.190 115.267,311.036 115.257,309.671 114.510 C 308.862 114.067,307.600 113.593,306.868 113.456 C 306.135 113.319,305.094 112.860,304.556 112.437 C 304.017 112.013,302.817 111.538,301.888 111.382 C 300.960 111.226,299.790 110.776,299.288 110.382 C 298.694 109.915,297.300 109.568,295.288 109.385 C 293.590 109.230,291.984 108.931,291.721 108.720 C 290.936 108.092,287.253 107.786,283.200 108.013 M191.789 108.542 C 191.355 108.840,189.740 109.205,188.200 109.354 C 186.442 109.524,185.011 109.907,184.355 110.384 C 183.780 110.802,182.632 111.270,181.804 111.426 C 180.977 111.581,180.012 112.044,179.661 112.454 C 179.310 112.864,178.822 113.200,178.577 113.200 C 177.670 113.200,171.600 118.419,171.600 119.199 C 171.600 119.351,171.161 119.986,170.625 120.610 C 170.089 121.234,169.545 122.166,169.415 122.682 C 169.286 123.198,168.844 123.956,168.434 124.366 C 167.958 124.842,167.585 126.008,167.401 127.594 C 167.242 128.960,166.863 130.555,166.559 131.139 C 165.791 132.610,165.792 139.925,166.560 141.022 C 166.868 141.461,167.248 142.843,167.404 144.092 C 167.581 145.506,168.048 146.852,168.644 147.659 C 169.170 148.372,169.600 149.258,169.600 149.629 C 169.600 149.999,169.882 150.536,170.226 150.822 C 170.571 151.108,171.094 151.805,171.389 152.371 C 172.479 154.464,178.127 159.473,180.468 160.423 C 181.055 160.661,181.628 161.095,181.740 161.388 C 181.852 161.680,182.632 162.141,183.472 162.413 C 184.312 162.684,185.301 163.220,185.669 163.603 C 186.036 163.986,187.017 164.427,187.849 164.583 C 188.680 164.739,189.554 165.132,189.791 165.456 C 190.028 165.780,190.994 166.219,191.938 166.431 C 192.882 166.643,194.137 167.156,194.727 167.571 C 195.317 167.986,196.520 168.447,197.400 168.596 C 198.280 168.746,199.302 169.139,199.671 169.470 C 200.041 169.801,201.093 170.241,202.011 170.447 C 202.928 170.653,203.939 171.082,204.257 171.400 C 204.576 171.719,205.519 172.163,206.354 172.388 C 207.190 172.613,208.199 173.157,208.598 173.598 C 208.998 174.039,209.657 174.400,210.065 174.400 C 210.472 174.400,211.197 174.850,211.675 175.400 C 212.153 175.950,212.782 176.400,213.072 176.400 C 214.285 176.400,219.600 182.411,219.600 183.784 C 219.600 184.283,219.960 185.150,220.400 185.709 C 221.416 187.001,221.597 193.973,220.635 194.771 C 220.324 195.029,219.860 196.117,219.603 197.190 C 219.345 198.262,218.877 199.238,218.561 199.359 C 218.246 199.480,217.815 200.034,217.604 200.590 C 217.393 201.145,216.952 201.600,216.624 201.600 C 216.296 201.600,215.843 201.945,215.617 202.367 C 215.391 202.790,214.647 203.258,213.963 203.408 C 213.278 203.558,212.375 204.025,211.954 204.446 C 210.095 206.305,193.477 206.277,191.612 204.412 C 191.165 203.965,190.364 203.600,189.831 203.600 C 189.298 203.600,188.327 203.150,187.673 202.600 C 187.019 202.050,186.293 201.600,186.059 201.600 C 185.467 201.600,180.400 196.628,180.400 196.047 C 180.400 195.787,180.119 195.467,179.776 195.335 C 179.433 195.204,178.879 194.413,178.545 193.579 C 178.211 192.744,177.685 191.965,177.376 191.846 C 177.067 191.728,176.694 190.876,176.546 189.954 C 176.399 189.033,175.957 187.957,175.563 187.563 C 175.118 187.118,174.699 185.774,174.453 183.999 C 174.236 182.431,173.782 180.727,173.444 180.211 C 173.106 179.696,172.708 178.082,172.559 176.626 C 172.243 173.545,172.365 173.668,169.286 173.346 C 165.029 172.901,165.200 172.249,165.200 188.935 C 165.200 199.523,165.048 204.065,164.596 207.035 L 163.992 211.000 165.018 211.900 C 167.133 213.754,172.400 212.834,172.400 210.610 C 172.400 209.346,172.790 208.400,173.311 208.400 C 173.545 208.400,174.021 208.143,174.369 207.829 C 174.988 207.270,181.405 208.438,182.000 209.218 C 182.416 209.763,183.862 210.317,185.600 210.597 C 186.590 210.757,187.704 211.156,188.076 211.484 C 188.452 211.816,190.223 212.256,192.076 212.476 C 193.904 212.694,196.022 213.152,196.783 213.494 C 198.738 214.374,209.585 214.398,211.602 213.528 C 212.373 213.195,214.328 212.792,215.946 212.633 C 218.828 212.349,220.800 211.759,220.800 211.181 C 220.800 211.022,221.589 210.772,222.554 210.628 C 223.519 210.483,224.626 210.013,225.016 209.582 C 225.405 209.152,225.974 208.800,226.280 208.800 C 226.586 208.800,227.299 208.338,227.863 207.773 C 228.428 207.208,229.320 206.582,229.845 206.383 C 230.370 206.183,230.800 205.766,230.800 205.457 C 230.800 205.147,231.173 204.796,231.630 204.676 C 232.086 204.557,232.555 204.092,232.673 203.643 C 232.790 203.194,233.227 202.718,233.643 202.586 C 234.059 202.454,234.400 202.087,234.400 201.770 C 234.400 201.454,234.841 200.811,235.380 200.342 C 235.919 199.874,236.478 198.956,236.621 198.304 C 236.764 197.652,237.199 196.801,237.588 196.412 C 238.004 195.996,238.415 194.739,238.589 193.353 C 238.750 192.059,239.178 190.461,239.540 189.800 C 240.485 188.076,240.483 180.197,239.538 178.754 C 239.173 178.198,238.746 176.706,238.587 175.438 C 238.389 173.847,238.005 172.815,237.350 172.108 C 236.827 171.544,236.400 170.841,236.400 170.546 C 236.400 168.608,228.886 160.999,225.500 159.509 C 224.895 159.242,224.400 158.808,224.400 158.543 C 224.400 158.279,223.725 157.846,222.900 157.582 C 222.075 157.318,221.031 156.766,220.581 156.357 C 220.130 155.947,219.140 155.490,218.381 155.340 C 217.621 155.191,216.779 154.759,216.510 154.380 C 216.240 154.002,215.340 153.567,214.510 153.414 C 213.679 153.261,212.640 152.813,212.200 152.419 C 211.760 152.025,210.641 151.608,209.714 151.491 C 208.786 151.375,207.559 150.911,206.986 150.460 C 206.413 150.009,205.158 149.523,204.199 149.379 C 203.239 149.235,202.361 148.875,202.248 148.580 C 202.134 148.284,201.267 147.836,200.321 147.584 C 199.374 147.332,198.318 146.875,197.974 146.568 C 197.630 146.261,196.730 145.797,195.974 145.536 C 195.218 145.276,194.379 144.754,194.109 144.377 C 193.839 144.000,193.129 143.568,192.530 143.418 C 191.931 143.268,191.048 142.752,190.569 142.272 C 190.089 141.793,189.045 140.810,188.249 140.090 C 187.452 139.369,186.800 138.659,186.800 138.512 C 186.800 138.364,186.330 137.753,185.756 137.154 C 183.743 135.053,183.475 124.489,185.383 122.439 C 185.710 122.088,186.651 121.035,187.473 120.100 C 188.295 119.165,189.233 118.400,189.558 118.400 C 189.883 118.400,190.562 118.011,191.068 117.536 C 193.172 115.559,207.739 115.593,210.266 117.580 C 210.839 118.031,211.634 118.400,212.033 118.400 C 212.432 118.400,213.244 118.850,213.838 119.400 C 214.431 119.950,215.090 120.400,215.302 120.400 C 215.859 120.400,220.342 125.132,221.461 126.900 C 221.983 127.725,222.580 128.400,222.787 128.400 C 222.994 128.400,223.282 129.032,223.427 129.803 C 223.572 130.575,224.022 131.628,224.427 132.143 C 224.832 132.658,225.339 134.171,225.554 135.506 C 225.769 136.841,226.227 138.479,226.572 139.147 C 226.918 139.814,227.200 140.615,227.200 140.926 C 227.200 143.041,229.521 144.015,232.463 143.134 C 234.458 142.536,234.316 143.723,234.573 125.512 C 234.823 107.848,235.103 109.200,231.200 109.200 C 228.476 109.200,227.727 109.663,227.410 111.543 C 227.222 112.654,226.871 113.222,226.174 113.539 C 225.638 113.783,225.200 114.257,225.200 114.591 C 225.200 115.001,224.808 115.200,224.000 115.200 C 223.340 115.200,222.800 115.042,222.800 114.849 C 222.800 114.469,221.276 113.813,219.490 113.422 C 218.879 113.289,218.052 112.852,217.651 112.451 C 217.250 112.050,216.134 111.596,215.171 111.442 C 214.209 111.288,213.110 110.880,212.730 110.536 C 212.341 110.185,210.671 109.734,208.919 109.507 C 207.204 109.285,205.121 108.855,204.292 108.552 C 202.220 107.794,192.889 107.787,191.789 108.542 M203.636 109.432 C 207.693 109.878,210.049 110.347,211.675 111.032 C 212.941 111.564,214.188 112.000,214.448 112.000 C 214.909 112.000,217.915 113.329,220.879 114.844 C 224.064 116.471,228.000 114.808,228.000 111.835 C 228.000 110.544,228.780 110.012,231.071 109.741 C 234.263 109.363,234.137 108.678,234.033 125.896 C 233.929 143.106,234.066 142.400,230.829 142.400 C 228.214 142.400,228.207 142.393,227.366 139.000 C 225.467 131.344,223.273 127.064,218.961 122.605 C 215.924 119.465,210.165 116.000,207.983 116.000 C 207.402 116.000,206.044 115.732,204.964 115.404 C 201.018 114.207,193.292 115.185,189.709 117.335 C 181.608 122.195,180.502 133.225,187.414 140.227 C 190.056 142.904,191.087 143.644,195.176 145.800 C 196.010 146.240,196.942 146.802,197.247 147.048 C 197.551 147.294,198.520 147.725,199.400 148.006 C 200.280 148.287,201.429 148.850,201.954 149.258 C 202.479 149.666,203.234 150.000,203.633 150.000 C 204.031 150.000,205.204 150.450,206.238 151.000 C 207.273 151.550,208.502 152.000,208.971 152.000 C 209.439 152.000,210.218 152.277,210.702 152.616 C 211.186 152.956,212.413 153.483,213.429 153.789 C 214.445 154.094,215.574 154.604,215.938 154.922 C 216.302 155.239,217.261 155.711,218.068 155.970 C 218.875 156.229,219.738 156.684,219.984 156.981 C 220.231 157.278,220.908 157.641,221.490 157.787 C 222.071 157.933,223.041 158.445,223.646 158.926 C 224.250 159.407,225.416 160.250,226.236 160.800 C 241.255 170.874,243.726 191.957,231.283 203.868 C 228.523 206.510,226.652 208.000,226.093 208.000 C 225.883 208.000,225.076 208.431,224.299 208.959 C 223.522 209.486,222.308 210.045,221.601 210.200 C 220.895 210.355,219.570 210.810,218.658 211.211 C 217.096 211.898,213.008 212.526,206.583 213.066 C 202.891 213.376,191.970 212.149,189.683 211.167 C 188.738 210.762,187.298 210.309,186.483 210.160 C 185.667 210.012,184.191 209.466,183.203 208.946 C 182.215 208.426,181.135 207.994,180.803 207.986 C 180.471 207.979,179.480 207.625,178.600 207.200 C 175.464 205.685,172.948 206.661,171.921 209.789 C 171.347 211.539,170.132 212.385,168.176 212.394 C 165.188 212.409,165.180 212.313,165.954 183.400 L 166.200 174.200 168.534 174.079 C 171.528 173.924,171.831 174.222,172.148 177.627 C 172.292 179.180,172.662 181.052,172.969 181.787 C 173.276 182.523,173.743 184.176,174.005 185.462 C 174.268 186.748,174.712 188.070,174.991 188.400 C 175.270 188.730,175.704 189.630,175.955 190.400 C 176.206 191.170,177.043 192.700,177.817 193.800 C 178.590 194.900,179.532 196.248,179.911 196.795 C 187.526 207.797,208.206 210.547,217.361 201.776 C 224.579 194.859,222.642 180.747,213.800 175.837 C 213.140 175.471,211.790 174.647,210.800 174.005 C 208.756 172.682,203.422 170.000,202.833 170.000 C 202.618 170.000,201.596 169.550,200.562 169.000 C 199.527 168.450,198.393 167.994,198.040 167.987 C 197.688 167.981,196.500 167.532,195.400 166.991 C 194.300 166.450,193.157 166.006,192.859 166.004 C 192.561 166.002,191.481 165.566,190.459 165.035 C 189.437 164.504,187.340 163.471,185.800 162.739 C 184.260 162.008,182.280 160.905,181.400 160.290 C 180.520 159.675,179.170 158.751,178.400 158.237 C 175.819 156.516,172.249 152.622,170.335 149.440 C 164.307 139.417,166.636 124.427,175.459 116.463 C 176.961 115.109,178.381 114.000,178.617 114.000 C 178.852 114.000,179.642 113.559,180.372 113.021 C 181.101 112.482,182.254 111.920,182.933 111.771 C 183.613 111.622,184.805 111.179,185.584 110.787 C 186.370 110.392,188.869 109.866,191.200 109.606 C 193.510 109.348,195.760 109.086,196.200 109.023 C 196.640 108.960,197.202 108.884,197.448 108.854 C 197.695 108.825,200.479 109.084,203.636 109.432 M293.222 109.757 C 295.325 110.055,297.611 110.592,298.302 110.950 C 298.994 111.307,299.882 111.600,300.274 111.600 C 300.667 111.600,301.891 112.032,302.994 112.559 C 308.411 115.149,309.589 115.600,310.940 115.600 C 312.680 115.600,313.575 114.812,314.978 112.043 C 316.096 109.837,316.897 109.411,319.194 109.799 C 321.645 110.213,321.719 110.455,321.221 116.478 C 320.978 119.405,320.734 126.144,320.678 131.453 C 320.562 142.362,320.552 142.400,317.795 142.400 C 315.203 142.400,314.484 141.568,313.997 138.000 C 313.600 135.088,313.282 134.221,310.647 128.865 C 303.119 113.562,277.981 109.788,271.386 122.970 C 269.762 126.216,269.591 133.847,271.100 135.764 C 271.595 136.393,272.000 137.109,272.000 137.354 C 272.000 138.349,278.084 144.000,279.154 144.000 C 279.346 144.000,279.704 144.243,279.950 144.540 C 280.753 145.507,294.741 152.000,296.023 152.000 C 296.292 152.000,297.252 152.344,298.156 152.765 C 299.060 153.186,301.060 154.093,302.600 154.781 C 304.140 155.469,305.670 156.209,306.000 156.426 C 306.330 156.643,307.378 157.189,308.328 157.641 C 312.865 159.797,320.774 166.694,322.228 169.762 C 322.550 170.443,323.063 171.450,323.368 172.000 C 326.042 176.829,326.949 188.959,324.953 193.200 C 324.487 194.190,323.989 195.494,323.846 196.098 C 323.288 198.453,318.962 203.675,314.953 206.831 C 309.930 210.787,297.872 213.704,289.273 213.044 C 283.944 212.635,277.169 211.672,276.658 211.251 C 276.406 211.044,275.210 210.604,274.000 210.274 C 272.790 209.944,270.810 209.272,269.600 208.779 C 262.802 206.013,262.313 205.924,260.736 207.164 C 260.202 207.585,259.414 208.620,258.986 209.464 C 257.448 212.496,255.786 213.191,253.200 211.882 L 252.200 211.376 252.360 197.588 C 252.449 190.005,252.539 181.851,252.560 179.468 C 252.606 174.503,252.904 174.000,255.800 174.000 C 258.547 174.000,258.892 174.719,260.221 183.198 C 260.377 184.187,260.840 185.624,261.252 186.392 C 261.663 187.160,262.011 188.061,262.025 188.394 C 262.053 189.054,264.364 193.337,266.068 195.886 C 271.347 203.779,282.740 208.244,293.400 206.596 C 295.820 206.222,298.340 205.641,299.000 205.306 C 302.442 203.556,303.106 203.134,304.330 201.920 C 307.485 198.788,309.448 193.069,308.781 188.954 C 307.855 183.240,307.475 182.452,303.800 178.630 C 301.042 175.761,298.834 174.297,293.200 171.600 C 291.330 170.704,289.170 169.641,288.400 169.236 C 287.630 168.831,286.370 168.370,285.600 168.211 C 284.830 168.052,283.655 167.609,282.988 167.227 C 282.322 166.844,281.242 166.402,280.588 166.245 C 279.935 166.087,277.240 164.881,274.600 163.564 C 270.164 161.351,268.374 160.312,265.357 158.200 C 263.514 156.911,258.381 151.506,257.758 150.200 C 257.443 149.540,256.937 148.550,256.632 148.000 C 254.131 143.483,253.054 131.509,254.852 128.200 C 255.210 127.540,255.639 126.372,255.805 125.604 C 255.970 124.836,256.532 123.649,257.053 122.966 C 257.574 122.283,258.000 121.529,258.000 121.291 C 258.000 120.698,264.739 114.000,265.336 114.000 C 265.599 114.000,266.477 113.550,267.286 113.000 C 268.095 112.450,268.999 112.000,269.294 112.000 C 269.589 112.000,270.541 111.638,271.409 111.195 C 272.809 110.482,275.259 109.924,279.000 109.467 C 281.962 109.105,289.738 109.264,293.222 109.757 M73.377 110.517 C 72.153 111.202,71.965 112.704,71.603 124.712 C 71.303 134.660,71.104 137.333,70.568 138.614 C 69.785 140.486,69.592 144.952,70.265 145.625 C 70.838 146.198,73.999 146.587,75.343 146.250 C 76.792 145.886,77.906 143.762,78.424 140.378 C 78.675 138.740,79.130 137.117,79.437 136.772 C 79.743 136.427,80.173 135.198,80.392 134.041 C 80.612 132.884,81.133 131.503,81.550 130.972 C 81.968 130.441,82.435 129.337,82.589 128.517 C 82.743 127.698,83.213 126.786,83.634 126.491 C 84.055 126.196,84.400 125.760,84.400 125.521 C 84.400 124.956,89.115 120.400,89.700 120.400 C 89.946 120.400,90.579 119.995,91.106 119.500 C 92.009 118.651,92.397 118.600,97.932 118.600 L 103.800 118.600 103.914 156.400 C 104.030 195.031,103.875 200.180,102.569 201.000 C 102.219 201.220,101.458 201.800,100.878 202.289 C 99.762 203.229,99.359 203.307,91.800 204.032 C 85.895 204.599,85.200 205.040,85.200 208.216 C 85.200 211.188,86.311 212.553,88.438 212.194 C 89.284 212.051,101.843 211.926,116.346 211.917 C 130.849 211.907,142.887 211.787,143.098 211.650 C 144.242 210.903,144.854 207.335,144.054 206.074 C 143.375 205.003,141.458 204.420,137.283 204.014 C 134.928 203.785,132.100 203.511,131.000 203.406 C 129.900 203.300,128.820 202.970,128.600 202.672 C 128.380 202.374,127.795 201.915,127.300 201.651 C 126.805 201.388,126.400 200.891,126.400 200.548 C 126.400 200.204,125.995 199.356,125.500 198.662 L 124.600 197.400 124.474 160.000 C 124.404 139.430,124.464 121.639,124.607 120.464 L 124.867 118.328 130.744 118.464 C 136.063 118.587,136.727 118.683,137.730 119.472 C 138.339 119.952,139.361 120.460,140.001 120.600 C 140.640 120.741,141.271 121.194,141.402 121.607 C 141.534 122.021,141.992 122.470,142.420 122.606 C 142.849 122.743,143.200 123.087,143.200 123.372 C 143.200 123.657,143.740 124.569,144.400 125.400 C 145.060 126.231,145.600 127.148,145.600 127.439 C 145.600 127.731,145.939 128.291,146.353 128.684 C 146.768 129.078,147.237 130.030,147.397 130.800 C 147.556 131.570,148.017 132.830,148.421 133.600 C 148.824 134.370,149.352 135.988,149.593 137.195 C 149.835 138.402,150.279 139.767,150.582 140.228 C 150.884 140.689,151.261 141.931,151.419 142.987 C 151.888 146.115,155.637 147.724,158.159 145.879 C 159.022 145.248,158.446 131.131,157.397 127.200 C 157.012 125.760,156.800 122.928,156.782 119.000 C 156.766 115.460,156.559 112.436,156.277 111.624 L 155.800 110.249 114.872 110.224 C 92.361 110.211,73.688 110.343,73.377 110.517 M123.118 111.488 C 153.617 111.330,155.256 111.357,155.618 112.034 C 155.828 112.427,156.000 114.613,156.000 116.894 C 156.000 121.750,156.692 131.104,157.221 133.400 C 157.423 134.280,157.709 137.109,157.855 139.686 C 158.154 144.951,157.933 145.604,155.851 145.595 C 152.997 145.582,152.357 144.926,151.763 141.400 C 151.614 140.520,151.252 139.323,150.957 138.741 C 150.663 138.158,150.234 136.808,150.004 135.741 C 149.582 133.774,148.551 131.350,146.288 127.000 C 144.897 124.327,144.779 124.159,142.800 122.051 C 139.101 118.112,125.906 115.186,124.414 117.974 C 124.137 118.492,124.001 131.723,124.004 158.074 L 124.008 197.400 124.953 199.400 C 126.836 203.382,128.813 204.237,138.282 205.164 C 142.362 205.563,143.600 206.273,143.600 208.215 C 143.600 210.994,143.378 211.028,126.359 210.800 C 118.132 210.690,105.910 210.690,99.200 210.800 C 85.978 211.017,86.282 211.061,85.725 208.844 C 85.117 206.422,85.867 205.839,90.209 205.357 C 106.390 203.560,105.184 207.475,105.193 156.710 L 105.200 118.421 104.020 117.810 C 97.859 114.624,84.280 120.727,82.214 127.610 C 82.050 128.154,81.654 129.016,81.334 129.524 C 80.603 130.682,78.945 135.436,78.170 138.600 C 76.617 144.934,75.142 146.471,71.826 145.210 C 70.677 144.773,70.482 143.222,71.198 140.200 C 71.407 139.320,71.760 135.450,71.984 131.600 C 72.797 117.615,73.281 112.630,73.895 111.922 C 74.686 111.012,75.821 110.945,84.000 111.327 C 87.850 111.507,105.453 111.579,123.118 111.488 M205.495 233.136 C 201.299 236.119,201.257 240.551,205.401 242.979 C 209.640 245.464,214.738 242.264,214.230 237.438 C 213.781 233.183,208.847 230.753,205.495 233.136 M211.876 234.606 C 213.739 236.548,213.940 238.278,212.572 240.611 C 210.209 244.644,205.536 244.197,203.544 239.747 C 201.366 234.881,208.134 230.706,211.876 234.606 M189.680 235.575 C 188.954 235.758,188.242 236.024,188.099 236.168 C 187.956 236.311,187.830 243.164,187.819 251.397 C 187.809 259.629,187.923 266.058,188.073 265.682 C 188.222 265.307,188.347 258.705,188.349 251.012 C 188.353 238.157,188.410 236.982,189.053 236.512 C 189.962 235.847,195.082 235.851,196.400 236.518 L 197.400 237.024 197.440 257.612 C 197.491 284.449,197.678 283.574,192.000 283.044 C 188.490 282.716,188.400 282.486,188.400 273.889 C 188.400 269.917,188.313 266.753,188.207 266.859 C 187.798 267.269,187.923 281.909,188.343 282.694 C 189.193 284.282,196.294 284.181,197.476 282.563 C 197.882 282.008,198.005 278.790,198.023 268.224 C 198.036 260.731,198.098 250.598,198.161 245.706 C 198.298 235.109,198.444 235.463,193.865 235.327 C 192.289 235.281,190.406 235.392,189.680 235.575 M120.813 247.398 C 118.950 247.908,117.360 248.521,117.279 248.762 C 117.199 249.003,116.893 249.200,116.599 249.200 C 115.140 249.200,109.627 255.198,109.607 256.806 C 109.603 257.139,109.195 258.129,108.700 259.006 C 107.568 261.011,107.393 269.590,108.450 271.257 C 108.778 271.776,109.356 273.028,109.734 274.040 C 110.828 276.973,116.325 282.400,118.201 282.400 C 118.691 282.400,119.562 282.770,120.137 283.222 C 124.749 286.850,139.527 281.876,142.205 275.793 C 142.428 275.287,142.905 274.541,143.264 274.136 C 145.609 271.497,145.563 259.513,143.197 256.505 C 142.758 255.948,142.400 255.263,142.400 254.984 C 142.400 254.374,137.847 249.600,137.265 249.600 C 137.041 249.600,136.561 249.303,136.198 248.941 C 134.018 246.761,126.061 245.963,120.813 247.398 M165.000 247.019 C 164.120 247.304,162.950 247.641,162.400 247.767 C 161.850 247.894,160.950 248.368,160.400 248.821 C 159.411 249.636,159.419 249.636,161.126 248.801 C 169.521 244.696,180.046 249.009,182.110 257.400 C 182.299 258.168,182.309 258.166,182.354 257.360 C 182.413 256.279,181.622 254.000,181.188 254.000 C 181.004 254.000,180.727 253.595,180.573 253.100 C 179.843 250.764,176.167 247.888,173.302 247.412 C 172.368 247.257,171.503 246.966,171.378 246.765 C 171.055 246.242,166.888 246.408,165.000 247.019 M235.600 247.025 C 234.830 247.316,233.840 247.568,233.400 247.585 C 232.960 247.601,231.798 248.158,230.819 248.822 L 229.037 250.028 228.460 248.914 C 227.628 247.306,227.360 247.213,223.554 247.206 C 220.783 247.201,219.921 247.347,219.154 247.950 L 218.200 248.701 218.210 265.151 L 218.220 281.602 219.210 282.573 C 220.086 283.432,220.612 283.557,223.776 283.658 L 227.352 283.772 227.858 282.586 C 228.353 281.425,228.682 260.785,228.197 261.269 C 228.086 261.381,227.990 266.006,227.985 271.548 C 227.974 283.625,228.057 283.399,223.748 283.124 C 219.146 282.831,219.420 283.937,219.282 265.089 C 219.144 246.371,218.859 247.595,223.344 247.605 C 226.671 247.613,227.529 247.902,228.228 249.253 L 228.823 250.405 231.112 249.243 C 233.887 247.834,238.138 247.010,240.930 247.341 C 242.941 247.579,242.964 247.570,241.851 246.993 C 240.479 246.281,237.527 246.296,235.600 247.025 M270.000 247.025 C 269.230 247.316,268.129 247.565,267.554 247.577 C 266.979 247.590,266.079 247.935,265.554 248.345 C 265.029 248.755,264.189 249.219,263.688 249.376 C 261.839 249.955,257.928 255.060,257.391 257.594 C 257.228 258.361,256.828 259.397,256.501 259.896 C 255.495 261.431,255.619 269.481,256.676 271.231 C 257.131 271.984,257.618 273.248,257.758 274.041 C 257.948 275.107,258.714 276.184,260.707 278.186 C 264.305 281.798,264.424 281.892,265.803 282.225 C 266.461 282.384,267.694 282.861,268.541 283.286 C 270.735 284.386,278.299 284.364,280.150 283.253 C 280.838 282.840,281.850 282.397,282.400 282.268 C 284.177 281.851,289.301 277.254,289.963 275.483 C 291.285 271.948,290.877 271.600,285.413 271.600 L 281.284 271.600 279.378 273.400 C 278.330 274.390,277.186 275.214,276.836 275.232 C 276.387 275.254,276.354 275.325,276.725 275.473 C 277.014 275.589,278.179 274.900,279.314 273.942 L 281.379 272.200 285.101 272.061 C 290.332 271.866,291.031 272.609,288.802 276.000 C 283.515 284.045,272.217 286.004,263.762 280.344 C 256.247 275.312,253.912 262.665,259.176 255.507 C 259.849 254.591,260.400 253.688,260.400 253.500 C 260.400 248.299,276.522 245.356,283.488 249.285 C 288.062 251.865,291.254 257.326,291.520 263.027 C 291.769 268.364,292.711 268.000,278.651 268.000 C 266.384 268.000,265.956 268.060,266.040 269.780 C 266.073 270.467,266.125 270.438,266.358 269.600 L 266.636 268.600 278.793 268.494 C 293.583 268.365,292.619 268.741,292.237 263.249 C 292.048 260.525,291.706 258.906,290.988 257.337 C 290.445 256.149,290.000 255.031,290.000 254.854 C 290.000 254.291,285.369 249.838,283.769 248.862 C 280.340 246.772,273.190 245.818,270.000 247.025 M204.099 247.711 C 203.210 248.694,203.212 281.563,204.101 282.901 C 204.986 284.235,211.033 283.987,212.300 282.565 L 213.200 281.555 213.200 265.027 C 213.200 250.158,213.134 248.443,212.540 247.949 C 211.420 247.017,204.892 246.833,204.099 247.711 M132.063 247.770 C 143.991 250.621,148.728 267.832,140.234 277.458 C 133.821 284.726,121.973 285.772,114.862 279.699 C 103.711 270.176,107.584 250.665,121.156 247.991 C 122.390 247.748,123.580 247.485,123.800 247.406 C 124.795 247.050,130.015 247.280,132.063 247.770 M148.900 247.812 L 148.000 248.445 148.000 264.804 C 148.000 284.966,147.570 283.584,153.851 283.595 C 158.446 283.602,158.163 284.386,158.400 271.039 L 158.600 259.800 159.745 258.140 C 162.728 253.814,169.953 254.508,172.105 259.326 L 173.210 261.800 173.205 271.520 C 173.199 283.811,173.063 283.444,177.688 283.692 C 180.744 283.857,181.077 283.798,181.996 282.931 L 182.991 281.991 183.047 272.435 C 183.078 267.179,182.985 261.826,182.842 260.539 C 182.698 259.253,182.559 263.385,182.532 269.723 C 182.473 283.434,182.680 282.803,178.238 282.794 C 173.473 282.784,173.506 282.869,173.653 270.867 L 173.769 261.400 172.678 259.075 C 171.271 256.073,168.471 254.557,164.998 254.915 C 158.830 255.552,157.313 259.223,157.728 272.496 C 158.030 282.119,157.717 282.800,152.996 282.800 C 151.298 282.800,150.608 282.597,149.722 281.834 L 148.600 280.867 148.582 265.134 C 148.561 246.494,148.143 248.000,153.340 248.000 C 156.726 248.000,157.033 248.070,158.162 249.100 L 159.368 250.200 158.334 248.800 L 157.300 247.400 153.550 247.289 C 150.639 247.203,149.599 247.320,148.900 247.812 M211.195 248.197 L 212.350 248.795 212.475 253.297 C 212.544 255.774,212.510 263.171,212.400 269.736 L 212.200 281.672 211.256 282.436 C 210.309 283.202,207.606 283.459,205.749 282.961 C 204.127 282.526,204.024 281.483,203.958 264.930 L 203.896 249.052 204.792 248.326 C 205.916 247.416,209.544 247.343,211.195 248.197 M244.263 247.983 C 246.522 248.521,251.316 253.352,251.783 255.561 C 252.741 260.093,253.169 276.924,252.410 280.200 C 251.846 282.634,250.737 283.315,247.657 283.119 C 243.879 282.878,244.000 283.271,244.000 271.202 C 244.000 257.597,242.668 254.800,236.188 254.800 C 232.426 254.800,227.757 258.272,228.505 260.514 C 228.588 260.765,229.094 260.036,229.628 258.895 C 230.561 256.904,230.709 256.785,233.297 255.932 L 235.995 255.044 238.497 255.842 C 240.850 256.591,241.070 256.769,242.179 258.819 L 243.357 261.000 243.579 271.800 C 243.840 284.548,243.483 283.600,248.024 283.600 C 253.790 283.600,253.696 283.831,253.488 270.193 C 253.310 258.577,252.837 255.580,250.698 252.540 C 249.103 250.273,245.427 247.584,244.000 247.642 C 243.125 247.677,243.157 247.719,244.263 247.983 M272.543 254.392 C 269.847 255.013,266.388 258.170,266.406 259.993 C 266.412 260.572,266.843 259.967,268.064 257.666 C 270.516 253.044,282.101 255.270,281.531 260.254 L 281.400 261.400 274.252 261.509 C 268.932 261.591,266.938 261.489,266.452 261.109 C 265.871 260.656,265.860 260.677,266.349 261.300 C 267.037 262.178,280.665 262.375,281.520 261.520 C 284.101 258.939,277.063 253.349,272.543 254.392 M123.000 255.631 C 114.441 259.044,116.068 274.427,125.129 275.764 C 126.267 275.931,126.772 275.879,126.606 275.609 C 126.467 275.384,125.910 275.200,125.369 275.200 C 124.255 275.200,120.400 273.305,120.400 272.758 C 120.400 272.561,120.015 272.015,119.545 271.545 C 117.505 269.505,117.556 261.572,119.626 258.967 C 120.272 258.155,120.800 257.362,120.800 257.206 C 120.800 256.714,124.815 255.600,126.586 255.600 C 130.248 255.600,132.731 257.280,133.819 260.495 C 134.172 261.538,134.627 262.493,134.831 262.619 C 135.420 262.983,135.258 266.998,134.602 268.254 C 134.274 268.884,134.004 269.691,134.002 270.046 C 133.997 271.515,130.382 274.651,128.000 275.253 C 127.018 275.501,127.016 275.506,127.929 275.553 C 131.713 275.745,136.406 269.336,135.772 264.843 C 134.682 257.131,129.184 253.165,123.000 255.631 M266.400 271.122 C 266.400 273.340,271.860 276.362,275.024 275.894 C 275.818 275.776,275.565 275.700,274.244 275.660 C 272.004 275.591,268.942 274.224,268.313 273.013 C 267.796 272.016,266.400 270.636,266.400 271.122 " stroke="none" fill="#a4b6c3" fill-rule="evenodd"></path><path id="path3" d="M207.400 233.181 C 202.945 234.220,201.707 239.112,205.130 242.152 C 209.821 246.316,216.231 239.145,211.876 234.606 C 210.477 233.148,209.237 232.753,207.400 233.181 M189.080 236.480 C 188.065 237.239,187.971 280.286,188.981 281.827 C 190.128 283.578,195.374 283.518,196.853 281.737 C 197.709 280.705,197.731 237.407,196.875 236.696 C 196.000 235.970,189.986 235.803,189.080 236.480 M123.800 247.406 C 123.580 247.485,122.390 247.748,121.156 247.991 C 100.391 252.082,106.963 286.281,128.023 283.729 C 139.745 282.309,146.373 272.513,144.017 260.089 C 142.508 252.135,130.914 244.861,123.800 247.406 M164.890 247.645 C 163.730 247.838,161.908 248.438,160.842 248.979 L 158.903 249.961 157.982 248.981 C 157.134 248.078,156.769 248.000,153.392 248.000 C 148.134 248.000,148.561 246.479,148.582 265.134 L 148.600 280.867 149.722 281.834 C 150.608 282.597,151.298 282.800,152.996 282.800 C 157.717 282.800,158.030 282.119,157.728 272.496 C 157.313 259.223,158.830 255.552,164.998 254.915 C 168.471 254.557,171.271 256.073,172.678 259.075 L 173.769 261.400 173.653 270.867 C 173.506 282.869,173.473 282.784,178.238 282.794 C 182.500 282.803,182.378 283.093,182.546 272.565 C 182.742 260.307,182.447 257.530,180.603 254.232 C 177.344 248.404,172.507 246.376,164.890 247.645 M235.077 247.790 C 233.799 248.069,231.872 248.778,230.795 249.364 L 228.836 250.430 228.234 249.266 C 227.529 247.902,226.677 247.613,223.344 247.605 C 218.859 247.595,219.144 246.371,219.282 265.089 C 219.420 283.937,219.146 282.831,223.748 283.124 C 228.049 283.398,227.973 283.603,227.986 271.712 C 228.001 257.529,229.324 254.800,236.188 254.800 C 242.668 254.800,244.000 257.597,244.000 271.202 C 244.000 283.271,243.879 282.878,247.657 283.119 C 250.737 283.315,251.846 282.634,252.410 280.200 C 253.169 276.924,252.741 260.093,251.783 255.561 C 251.545 254.434,248.481 250.607,246.687 249.197 C 244.428 247.420,239.499 246.823,235.077 247.790 M270.000 247.765 C 265.357 248.491,260.400 251.453,260.400 253.500 C 260.400 253.688,259.849 254.591,259.176 255.507 C 253.912 262.665,256.247 275.312,263.762 280.344 C 272.217 286.004,283.515 284.045,288.802 276.000 C 291.031 272.609,290.332 271.866,285.101 272.061 C 281.389 272.200,281.373 272.205,279.388 273.880 C 274.884 277.679,267.356 275.664,266.188 270.346 C 265.675 268.012,265.738 268.000,278.620 268.000 C 289.073 268.000,290.416 267.927,291.016 267.327 C 292.025 266.318,291.676 260.068,290.474 257.600 C 286.237 248.902,280.464 246.128,270.000 247.765 M204.792 248.326 L 203.896 249.052 203.958 264.930 C 204.024 281.483,204.127 282.526,205.749 282.961 C 207.606 283.459,210.309 283.202,211.256 282.436 L 212.200 281.672 212.400 269.736 C 212.510 263.171,212.544 255.774,212.475 253.297 L 212.350 248.795 211.195 248.197 C 209.544 247.343,205.916 247.416,204.792 248.326 M277.882 255.473 C 281.240 257.034,283.031 260.009,281.520 261.520 C 280.878 262.162,267.158 262.198,266.520 261.560 C 265.506 260.546,267.448 257.053,269.850 255.569 C 272.653 253.837,274.317 253.817,277.882 255.473 M130.736 255.767 C 134.322 257.621,136.741 264.790,135.185 268.949 C 131.660 278.371,120.288 278.002,117.796 268.385 C 115.493 259.496,123.274 251.908,130.736 255.767 " stroke="none" fill="#70a6e2" fill-rule="evenodd"></path><path id="path4" d="M196.200 109.023 C 195.760 109.086,193.510 109.348,191.200 109.606 C 188.869 109.866,186.370 110.392,185.584 110.787 C 184.805 111.179,183.613 111.622,182.933 111.771 C 182.254 111.920,181.101 112.482,180.372 113.021 C 179.642 113.559,178.852 114.000,178.617 114.000 C 175.664 114.000,168.715 123.998,167.774 129.600 C 166.477 137.322,167.415 144.584,170.335 149.440 C 172.249 152.622,175.819 156.516,178.400 158.237 C 179.170 158.751,180.520 159.675,181.400 160.290 C 182.280 160.905,184.260 162.008,185.800 162.739 C 187.340 163.471,189.437 164.504,190.459 165.035 C 191.481 165.566,192.561 166.002,192.859 166.004 C 193.157 166.006,194.300 166.450,195.400 166.991 C 196.500 167.532,197.688 167.981,198.040 167.987 C 198.393 167.994,199.527 168.450,200.562 169.000 C 201.596 169.550,202.618 170.000,202.833 170.000 C 203.422 170.000,208.756 172.682,210.800 174.005 C 211.790 174.647,213.140 175.471,213.800 175.837 C 222.642 180.747,224.579 194.859,217.361 201.776 C 208.206 210.547,187.526 207.797,179.911 196.795 C 179.532 196.248,178.590 194.900,177.817 193.800 C 177.043 192.700,176.206 191.170,175.955 190.400 C 175.704 189.630,175.270 188.730,174.991 188.400 C 174.712 188.070,174.268 186.748,174.005 185.462 C 173.743 184.176,173.276 182.523,172.969 181.787 C 172.662 181.052,172.292 179.180,172.148 177.627 C 171.831 174.222,171.528 173.924,168.534 174.079 L 166.200 174.200 165.954 183.400 C 165.180 212.313,165.188 212.409,168.176 212.394 C 170.132 212.385,171.347 211.539,171.921 209.789 C 172.948 206.661,175.464 205.685,178.600 207.200 C 179.480 207.625,180.471 207.979,180.803 207.986 C 181.135 207.994,182.215 208.426,183.203 208.946 C 184.191 209.466,185.667 210.012,186.483 210.160 C 187.298 210.309,188.738 210.762,189.683 211.167 C 191.970 212.149,202.891 213.376,206.583 213.066 C 213.008 212.526,217.096 211.898,218.658 211.211 C 219.570 210.810,220.895 210.355,221.601 210.200 C 222.308 210.045,223.522 209.486,224.299 208.959 C 225.076 208.431,225.883 208.000,226.093 208.000 C 226.652 208.000,228.523 206.510,231.283 203.868 C 243.726 191.957,241.255 170.874,226.236 160.800 C 225.416 160.250,224.250 159.407,223.646 158.926 C 223.041 158.445,222.071 157.933,221.490 157.787 C 220.908 157.641,220.231 157.278,219.984 156.981 C 219.738 156.684,218.875 156.229,218.068 155.970 C 217.261 155.711,216.302 155.239,215.938 154.922 C 215.574 154.604,214.445 154.094,213.429 153.789 C 212.413 153.483,211.186 152.956,210.702 152.616 C 210.218 152.277,209.439 152.000,208.971 152.000 C 208.502 152.000,207.273 151.550,206.238 151.000 C 205.204 150.450,204.031 150.000,203.633 150.000 C 203.234 150.000,202.479 149.666,201.954 149.258 C 201.429 148.850,200.280 148.287,199.400 148.006 C 198.520 147.725,197.551 147.294,197.247 147.048 C 196.942 146.802,196.010 146.240,195.176 145.800 C 191.087 143.644,190.056 142.904,187.414 140.227 C 180.502 133.225,181.608 122.195,189.709 117.335 C 193.292 115.185,201.018 114.207,204.964 115.404 C 206.044 115.732,207.402 116.000,207.983 116.000 C 210.165 116.000,215.924 119.465,218.961 122.605 C 223.273 127.064,225.467 131.344,227.366 139.000 C 228.207 142.393,228.214 142.400,230.829 142.400 C 234.066 142.400,233.929 143.106,234.033 125.896 C 234.137 108.678,234.263 109.363,231.071 109.741 C 228.780 110.012,228.000 110.544,228.000 111.835 C 228.000 114.808,224.064 116.471,220.879 114.844 C 217.915 113.329,214.909 112.000,214.448 112.000 C 214.188 112.000,212.941 111.564,211.675 111.032 C 209.687 110.195,199.389 108.619,197.448 108.854 C 197.202 108.884,196.640 108.960,196.200 109.023 M279.000 109.467 C 275.259 109.924,272.809 110.482,271.409 111.195 C 270.541 111.638,269.589 112.000,269.294 112.000 C 268.999 112.000,268.095 112.450,267.286 113.000 C 266.477 113.550,265.599 114.000,265.336 114.000 C 264.739 114.000,258.000 120.698,258.000 121.291 C 258.000 121.529,257.574 122.283,257.053 122.966 C 256.532 123.649,255.970 124.836,255.805 125.604 C 255.639 126.372,255.210 127.540,254.852 128.200 C 253.054 131.509,254.131 143.483,256.632 148.000 C 256.937 148.550,257.443 149.540,257.758 150.200 C 258.381 151.506,263.514 156.911,265.357 158.200 C 268.374 160.312,270.164 161.351,274.600 163.564 C 277.240 164.881,279.935 166.087,280.588 166.245 C 281.242 166.402,282.322 166.844,282.988 167.227 C 283.655 167.609,284.830 168.052,285.600 168.211 C 286.370 168.370,287.630 168.831,288.400 169.236 C 289.170 169.641,291.330 170.704,293.200 171.600 C 301.761 175.698,306.962 180.418,308.018 185.047 C 309.700 192.415,308.534 197.746,304.330 201.920 C 303.106 203.134,302.442 203.556,299.000 205.306 C 291.225 209.258,276.234 206.281,269.082 199.364 C 266.465 196.834,262.093 190.037,262.025 188.394 C 262.011 188.061,261.663 187.160,261.252 186.392 C 260.840 185.624,260.377 184.187,260.221 183.198 C 258.892 174.719,258.547 174.000,255.800 174.000 C 252.904 174.000,252.606 174.503,252.560 179.468 C 252.539 181.851,252.449 190.005,252.360 197.588 L 252.200 211.376 253.200 211.882 C 255.786 213.191,257.448 212.496,258.986 209.464 C 259.414 208.620,260.202 207.585,260.736 207.164 C 262.313 205.924,262.802 206.013,269.600 208.779 C 270.810 209.272,272.790 209.944,274.000 210.274 C 275.210 210.604,276.406 211.044,276.658 211.251 C 277.169 211.672,283.944 212.635,289.273 213.044 C 297.872 213.704,309.930 210.787,314.953 206.831 C 318.962 203.675,323.288 198.453,323.846 196.098 C 323.989 195.494,324.487 194.190,324.953 193.200 C 326.949 188.959,326.042 176.829,323.368 172.000 C 323.063 171.450,322.550 170.443,322.228 169.762 C 320.774 166.694,312.865 159.797,308.328 157.641 C 307.378 157.189,306.330 156.643,306.000 156.426 C 305.670 156.209,304.140 155.469,302.600 154.781 C 301.060 154.093,299.060 153.186,298.156 152.765 C 297.252 152.344,296.292 152.000,296.023 152.000 C 294.741 152.000,280.753 145.507,279.950 144.540 C 279.704 144.243,279.346 144.000,279.154 144.000 C 278.084 144.000,272.000 138.349,272.000 137.354 C 272.000 137.109,271.595 136.393,271.100 135.764 C 269.591 133.847,269.762 126.216,271.386 122.970 C 277.981 109.788,303.119 113.562,310.647 128.865 C 313.282 134.221,313.600 135.088,313.997 138.000 C 314.484 141.568,315.203 142.400,317.795 142.400 C 320.552 142.400,320.562 142.362,320.678 131.453 C 320.734 126.144,320.978 119.405,321.221 116.478 C 321.719 110.455,321.645 110.213,319.194 109.799 C 316.897 109.411,316.096 109.837,314.978 112.043 C 313.575 114.812,312.680 115.600,310.940 115.600 C 309.589 115.600,308.411 115.149,302.994 112.559 C 301.891 112.032,300.667 111.600,300.274 111.600 C 299.882 111.600,298.994 111.307,298.302 110.950 C 295.795 109.653,284.545 108.789,279.000 109.467 M205.885 110.384 C 207.691 110.592,209.581 111.018,210.085 111.331 C 210.588 111.644,211.810 112.096,212.800 112.336 C 213.790 112.576,215.313 113.138,216.185 113.586 C 217.056 114.034,218.067 114.400,218.431 114.400 C 218.794 114.400,219.552 114.761,220.113 115.203 C 223.041 117.506,227.565 116.080,228.448 112.576 C 228.905 110.759,229.454 110.416,231.913 110.405 C 233.717 110.398,233.657 109.709,233.311 126.416 L 233.000 141.400 230.800 141.400 L 228.600 141.400 228.159 138.712 C 227.917 137.234,227.521 135.787,227.280 135.496 C 227.038 135.205,226.641 134.078,226.398 132.990 C 226.154 131.903,225.713 130.740,225.417 130.406 C 225.122 130.073,224.590 129.170,224.237 128.400 C 222.540 124.706,216.592 118.597,213.897 117.780 C 213.404 117.630,212.628 117.169,212.174 116.754 C 211.720 116.340,210.326 115.811,209.075 115.580 C 207.824 115.349,206.177 114.899,205.413 114.580 C 201.512 112.950,193.340 114.266,188.318 117.332 C 183.697 120.154,180.527 129.196,182.566 133.740 C 182.877 134.433,183.341 135.676,183.598 136.503 C 183.854 137.330,184.410 138.191,184.832 138.417 C 185.254 138.643,185.602 139.047,185.604 139.314 C 185.610 139.914,188.122 142.400,188.723 142.400 C 188.963 142.400,189.320 142.686,189.516 143.035 C 189.892 143.708,192.100 145.160,194.358 146.221 C 195.105 146.572,195.968 147.111,196.276 147.419 C 196.584 147.727,197.575 148.178,198.478 148.421 C 199.381 148.664,200.371 149.114,200.678 149.421 C 200.985 149.728,201.951 150.171,202.824 150.406 C 203.697 150.642,204.994 151.166,205.706 151.573 C 206.418 151.979,207.657 152.426,208.460 152.566 C 209.263 152.706,210.128 153.072,210.383 153.379 C 210.638 153.686,211.538 154.054,212.384 154.197 C 213.230 154.340,214.515 154.894,215.239 155.429 C 215.963 155.963,216.856 156.400,217.224 156.400 C 217.591 156.400,218.321 156.727,218.846 157.127 C 219.371 157.527,220.430 158.098,221.200 158.396 C 221.970 158.695,222.922 159.268,223.316 159.669 C 223.709 160.071,224.229 160.400,224.471 160.400 C 225.453 160.400,233.964 168.458,233.989 169.411 C 233.995 169.637,234.360 170.130,234.800 170.507 C 235.240 170.884,235.600 171.530,235.600 171.942 C 235.600 172.355,235.955 173.143,236.388 173.694 C 237.609 175.246,238.133 179.767,237.888 186.635 C 237.659 193.048,237.140 194.784,233.898 199.974 C 232.459 202.278,226.528 207.600,225.399 207.600 C 225.129 207.600,224.463 207.950,223.919 208.378 C 223.375 208.806,222.046 209.368,220.965 209.628 C 219.884 209.888,218.570 210.368,218.045 210.696 C 215.504 212.279,194.352 212.392,191.083 210.840 C 190.157 210.400,188.467 209.856,187.326 209.630 C 186.185 209.404,184.655 208.856,183.926 208.411 C 183.197 207.967,182.261 207.602,181.847 207.601 C 181.433 207.601,180.476 207.218,179.721 206.751 C 176.529 204.779,172.178 206.030,171.401 209.144 C 170.985 210.811,170.031 211.601,168.438 211.594 C 166.099 211.584,166.185 212.376,166.400 192.800 L 166.600 174.600 168.400 174.496 C 171.038 174.343,171.243 174.617,171.667 178.852 C 171.873 180.913,172.280 182.964,172.570 183.409 C 172.861 183.854,173.229 185.024,173.388 186.009 C 173.547 186.994,174.110 188.552,174.638 189.471 C 175.167 190.390,175.600 191.401,175.600 191.716 C 175.600 192.032,176.134 192.990,176.786 193.845 C 177.439 194.700,178.294 195.830,178.686 196.356 C 180.069 198.206,184.205 202.397,184.651 202.399 C 184.899 202.399,185.326 202.669,185.599 202.998 C 186.389 203.951,190.864 206.001,193.440 206.591 C 194.738 206.888,196.610 207.342,197.600 207.599 C 199.760 208.160,207.262 207.973,208.048 207.339 C 208.352 207.094,209.529 206.698,210.665 206.458 C 212.867 205.995,216.449 203.927,218.043 202.200 C 219.771 200.328,220.400 199.483,220.400 199.033 C 220.400 198.744,220.805 197.993,221.300 197.364 C 223.798 194.190,222.394 183.281,219.030 179.722 C 218.573 179.240,217.840 178.452,217.400 177.972 C 216.277 176.747,211.936 173.600,211.369 173.600 C 211.110 173.600,210.655 173.307,210.358 172.950 C 209.735 172.199,204.430 169.600,203.520 169.600 C 203.183 169.600,202.463 169.250,201.919 168.822 C 201.375 168.394,200.046 167.829,198.965 167.566 C 197.884 167.303,196.730 166.857,196.400 166.575 C 196.070 166.293,195.260 165.948,194.600 165.808 C 193.401 165.554,192.136 164.993,186.294 162.125 C 181.591 159.816,180.677 159.281,180.303 158.613 C 180.115 158.276,179.717 158.000,179.420 158.000 C 178.758 158.000,172.000 151.305,172.000 150.649 C 172.000 150.390,171.640 149.870,171.200 149.493 C 170.760 149.116,170.400 148.533,170.400 148.197 C 170.400 147.860,169.940 146.705,169.377 145.629 C 167.614 142.257,167.603 127.992,169.362 126.039 C 169.679 125.688,170.067 124.860,170.225 124.200 C 170.730 122.092,177.935 114.400,179.404 114.400 C 179.673 114.400,180.377 114.018,180.970 113.552 C 181.563 113.086,182.800 112.535,183.718 112.329 C 184.637 112.123,185.694 111.677,186.068 111.338 C 187.339 110.188,199.211 109.616,205.885 110.384 M292.947 110.387 C 295.072 110.611,296.759 111.001,297.157 111.361 C 297.522 111.692,298.626 112.078,299.610 112.221 C 300.595 112.363,301.877 112.814,302.460 113.222 C 303.043 113.631,304.033 114.093,304.660 114.249 C 305.287 114.405,306.592 114.953,307.560 115.467 C 311.100 117.345,316.000 115.265,316.000 111.883 C 316.000 110.644,318.610 109.837,319.803 110.706 C 320.068 110.899,320.137 116.209,320.003 126.200 L 319.800 141.400 318.200 141.518 C 315.574 141.711,314.441 140.063,314.407 136.000 C 314.401 135.230,313.953 133.880,313.410 133.000 C 312.868 132.120,312.419 131.009,312.412 130.531 C 312.406 130.053,311.950 129.127,311.400 128.473 C 310.850 127.819,310.400 127.128,310.400 126.936 C 310.400 126.744,309.512 125.600,308.426 124.393 C 306.172 121.890,306.268 121.985,304.400 120.371 C 303.630 119.705,302.730 118.918,302.400 118.623 C 302.070 118.328,301.170 117.792,300.400 117.432 C 299.630 117.073,298.550 116.516,298.000 116.195 C 297.450 115.874,296.634 115.609,296.186 115.606 C 295.739 115.603,294.348 115.240,293.096 114.800 C 284.347 111.725,273.654 115.984,270.000 124.000 C 269.034 126.118,269.442 134.728,270.586 136.380 C 271.144 137.185,271.600 137.992,271.600 138.173 C 271.600 139.185,276.999 144.028,278.745 144.583 C 279.215 144.732,279.600 145.031,279.600 145.247 C 279.600 145.464,280.275 145.920,281.100 146.260 C 281.925 146.601,282.870 147.115,283.200 147.403 C 283.530 147.690,284.544 148.124,285.453 148.366 C 286.363 148.608,287.320 149.063,287.581 149.377 C 287.842 149.691,288.628 150.070,289.328 150.217 C 290.027 150.365,291.140 150.813,291.800 151.213 C 292.460 151.613,293.900 152.159,295.000 152.426 C 296.100 152.694,297.273 153.147,297.606 153.433 C 297.939 153.719,298.966 154.123,299.888 154.330 C 300.810 154.537,301.850 154.993,302.200 155.343 C 302.550 155.693,303.529 156.166,304.377 156.394 C 305.224 156.622,306.012 157.054,306.127 157.353 C 306.241 157.652,306.845 158.024,307.468 158.179 C 308.515 158.441,311.097 159.928,313.000 161.367 C 316.134 163.737,319.600 166.952,319.600 167.488 C 319.600 167.690,320.050 168.247,320.600 168.725 C 321.150 169.203,321.600 169.842,321.600 170.143 C 321.600 170.445,321.979 171.174,322.442 171.763 C 322.906 172.352,323.552 173.861,323.879 175.117 C 324.206 176.373,324.673 177.642,324.916 177.937 C 325.815 179.026,325.787 187.761,324.876 190.513 C 324.423 191.881,323.844 193.810,323.589 194.800 C 323.334 195.790,322.895 196.870,322.613 197.200 C 322.331 197.530,321.853 198.278,321.550 198.863 C 320.102 201.662,314.310 207.067,311.961 207.812 C 311.441 207.977,310.562 208.430,310.008 208.819 C 309.453 209.207,308.280 209.647,307.400 209.796 C 306.520 209.946,305.499 210.338,305.130 210.668 C 302.992 212.586,280.885 212.381,277.013 210.407 C 276.143 209.963,274.938 209.600,274.337 209.600 C 273.735 209.600,272.396 209.150,271.362 208.600 C 270.327 208.050,269.190 207.600,268.835 207.600 C 268.479 207.600,267.471 207.215,266.594 206.744 C 262.735 204.673,259.210 206.037,257.767 210.162 C 257.305 211.483,255.818 211.942,253.712 211.414 C 252.762 211.175,252.742 211.092,252.964 208.284 C 253.089 206.698,253.302 198.560,253.436 190.200 C 253.697 173.956,253.629 174.412,255.800 174.412 C 257.550 174.412,257.851 174.765,258.125 177.142 C 258.261 178.321,258.555 179.505,258.778 179.773 C 259.001 180.042,259.371 181.589,259.601 183.210 C 259.831 184.832,260.268 186.438,260.573 186.779 C 260.877 187.121,261.339 188.210,261.600 189.200 C 261.861 190.190,262.310 191.270,262.597 191.600 C 262.885 191.930,263.410 192.830,263.763 193.600 C 265.540 197.468,270.490 202.236,274.800 204.231 C 275.570 204.588,276.491 205.138,276.847 205.453 C 277.202 205.769,278.636 206.211,280.033 206.436 C 281.430 206.661,282.803 207.037,283.085 207.271 C 284.163 208.165,292.036 208.176,295.035 207.287 C 296.556 206.836,298.282 206.362,298.872 206.233 C 299.462 206.104,300.190 205.753,300.491 205.452 C 300.791 205.152,301.431 204.781,301.912 204.628 C 308.848 202.427,312.390 186.695,307.123 181.484 C 306.725 181.091,306.400 180.598,306.400 180.390 C 306.400 179.922,302.959 176.531,301.600 175.660 C 301.050 175.308,300.464 174.803,300.297 174.540 C 300.130 174.276,299.365 173.853,298.597 173.599 C 297.829 173.345,297.200 172.987,297.200 172.802 C 297.200 172.617,296.390 172.157,295.400 171.779 C 294.410 171.401,293.600 170.941,293.600 170.757 C 293.600 170.573,292.625 170.139,291.434 169.793 C 290.242 169.446,289.062 168.915,288.810 168.613 C 288.559 168.310,287.599 167.939,286.677 167.789 C 285.755 167.639,284.460 167.191,283.800 166.794 C 283.140 166.398,281.790 165.860,280.800 165.599 C 279.810 165.339,278.730 164.895,278.400 164.613 C 278.070 164.332,277.080 163.876,276.200 163.600 C 275.320 163.324,274.330 162.870,274.000 162.589 C 273.670 162.309,272.770 161.785,272.000 161.426 C 270.522 160.735,268.750 159.681,266.166 157.954 C 263.898 156.439,258.400 150.678,258.400 149.818 C 258.400 149.564,257.972 148.776,257.449 148.067 C 256.927 147.358,256.381 146.044,256.238 145.147 C 256.094 144.250,255.670 142.950,255.296 142.258 C 254.299 140.418,254.312 131.559,255.314 129.707 C 255.699 128.996,256.127 127.587,256.265 126.577 C 256.404 125.567,256.737 124.520,257.007 124.251 C 257.276 123.981,257.799 123.175,258.169 122.459 C 258.540 121.743,259.110 120.852,259.437 120.479 C 261.781 117.804,263.195 116.400,263.546 116.400 C 263.771 116.400,264.190 116.076,264.477 115.680 C 264.765 115.284,265.580 114.724,266.290 114.436 C 266.999 114.147,267.972 113.571,268.451 113.156 C 268.930 112.740,269.707 112.400,270.177 112.400 C 270.646 112.400,271.744 112.028,272.615 111.573 C 275.346 110.147,285.201 109.573,292.947 110.387 M75.742 111.122 C 73.242 111.365,73.122 112.021,71.984 131.600 C 71.760 135.450,71.407 139.320,71.198 140.200 C 70.482 143.222,70.677 144.773,71.826 145.210 C 75.142 146.471,76.617 144.934,78.170 138.600 C 78.945 135.436,80.603 130.682,81.334 129.524 C 81.654 129.016,82.050 128.154,82.214 127.610 C 84.280 120.727,97.859 114.624,104.020 117.810 L 105.200 118.421 105.193 156.710 C 105.184 207.475,106.390 203.560,90.209 205.357 C 85.867 205.839,85.117 206.422,85.725 208.844 C 86.282 211.061,85.978 211.017,99.200 210.800 C 105.910 210.690,118.132 210.690,126.359 210.800 C 143.378 211.028,143.600 210.994,143.600 208.215 C 143.600 206.273,142.362 205.563,138.282 205.164 C 128.813 204.237,126.836 203.382,124.953 199.400 L 124.008 197.400 124.004 158.074 C 124.001 131.723,124.137 118.492,124.414 117.974 C 125.906 115.186,139.101 118.112,142.800 122.051 C 144.779 124.159,144.897 124.327,146.288 127.000 C 148.551 131.350,149.582 133.774,150.004 135.741 C 150.234 136.808,150.663 138.158,150.957 138.741 C 151.252 139.323,151.614 140.520,151.763 141.400 C 152.357 144.926,152.997 145.582,155.851 145.595 C 157.933 145.604,158.154 144.951,157.855 139.686 C 157.709 137.109,157.423 134.280,157.221 133.400 C 156.692 131.104,156.000 121.750,156.000 116.894 C 156.000 114.613,155.828 112.427,155.618 112.034 C 155.256 111.357,153.617 111.330,123.118 111.488 C 105.453 111.579,87.850 111.507,84.000 111.327 C 80.150 111.147,76.434 111.055,75.742 111.122 M155.395 113.000 C 155.483 113.440,155.652 118.210,155.769 123.600 C 155.938 131.356,156.149 134.151,156.784 137.000 C 158.289 143.756,157.684 145.267,153.897 144.217 C 152.743 143.898,152.631 143.638,152.187 140.233 C 152.046 139.152,151.684 137.889,151.382 137.428 C 151.079 136.967,150.625 135.602,150.371 134.395 C 150.117 133.188,149.683 131.930,149.406 131.600 C 149.128 131.270,148.679 130.280,148.406 129.400 C 148.134 128.520,147.698 127.620,147.437 127.400 C 147.176 127.180,146.736 126.444,146.459 125.764 C 145.891 124.367,141.633 119.590,140.962 119.596 C 140.721 119.598,140.206 119.249,139.817 118.819 C 139.424 118.384,138.111 117.837,136.855 117.585 C 135.615 117.336,133.880 116.898,133.000 116.612 C 130.248 115.719,125.051 115.860,124.152 116.853 C 123.357 117.731,122.934 194.815,123.704 198.423 C 124.305 201.241,127.132 204.179,129.600 204.551 C 130.590 204.700,132.120 205.079,133.000 205.394 C 133.880 205.708,136.007 205.973,137.726 205.982 C 141.477 206.004,142.400 206.402,142.400 208.000 C 142.400 210.035,142.730 210.013,113.721 209.903 L 86.600 209.800 86.471 208.449 C 86.284 206.494,86.664 206.318,91.765 206.002 C 94.302 205.845,96.608 205.531,96.889 205.304 C 97.170 205.078,98.231 204.719,99.246 204.506 C 101.747 203.983,103.900 202.213,104.484 200.200 C 104.739 199.320,105.185 198.245,105.474 197.811 C 106.468 196.320,106.225 118.225,105.222 117.222 C 103.431 115.431,91.681 116.423,89.495 118.549 C 89.223 118.813,88.370 119.420,87.600 119.896 C 85.803 121.008,81.626 126.269,81.607 127.446 C 81.603 127.691,81.246 128.342,80.814 128.891 C 80.382 129.441,79.838 130.737,79.607 131.771 C 79.375 132.805,78.920 134.055,78.597 134.549 C 78.273 135.043,77.826 136.426,77.603 137.623 C 77.381 138.821,76.946 140.340,76.638 141.000 C 76.330 141.660,75.884 142.695,75.647 143.300 C 75.317 144.144,74.950 144.400,74.071 144.400 C 73.022 144.400,71.345 143.188,71.785 142.748 C 71.888 142.646,72.160 139.420,72.390 135.581 C 72.620 131.741,72.987 127.520,73.206 126.200 C 73.424 124.880,73.717 121.370,73.856 118.400 C 73.995 115.430,74.249 112.820,74.421 112.600 C 75.125 111.695,155.213 112.091,155.395 113.000 " stroke="none" fill="#868c8e" fill-rule="evenodd"></path></g></svg>