<?xml version="1.0" standalone="no"?>
<!DOCTYPE svg PUBLIC "-//W3C//DTD SVG 20010904//EN"
 "http://www.w3.org/TR/2001/REC-SVG-20010904/DTD/svg10.dtd">
<svg version="1.0" xmlns="http://www.w3.org/2000/svg"
 width="200.000000pt" height="200.000000pt" viewBox="0 0 200.000000 200.000000"
 preserveAspectRatio="xMidYMid meet">

<g transform="translate(0.000000,200.000000) scale(0.100000,-0.100000)"
fill="#000000" stroke="none">
<path d="M914 1440 c-11 -4 -33 -22 -47 -40 -22 -25 -27 -42 -27 -82 0 -48 3
-55 43 -92 26 -25 68 -51 108 -65 35 -14 76 -37 92 -52 52 -53 26 -130 -50
-145 -72 -14 -157 49 -169 126 -4 24 -12 40 -20 40 -11 0 -14 -21 -14 -95 0
-96 8 -115 35 -78 11 15 15 15 54 0 50 -21 150 -22 195 -3 49 21 76 64 76 125
0 72 -42 118 -150 161 -78 31 -130 74 -130 105 0 33 25 65 58 76 69 23 148
-26 167 -103 4 -16 13 -28 21 -28 11 0 14 18 14 80 0 81 -9 98 -35 63 -11 -15
-15 -15 -54 0 -44 18 -132 22 -167 7z"/>
<path d="M1329 1427 c-41 -27 -64 -83 -55 -131 10 -55 49 -91 127 -123 97 -39
143 -79 143 -125 0 -45 -16 -65 -65 -79 -32 -10 -46 -9 -84 5 -50 20 -77 51
-95 114 -7 23 -16 42 -20 42 -7 0 -20 -106 -20 -162 0 -31 17 -37 35 -12 11
16 15 16 60 0 59 -20 157 -21 193 -2 55 29 77 63 77 121 0 77 -21 100 -144
160 -112 55 -131 72 -131 120 0 51 51 83 111 70 45 -10 97 -60 105 -101 3 -19
12 -34 19 -34 10 0 14 22 17 80 3 80 -4 95 -27 63 -12 -16 -15 -16 -57 0 -64
25 -147 22 -189 -6z"/>
<path d="M366 1403 c-15 -93 2 -182 20 -105 15 60 43 100 79 112 65 22 65 22
65 -195 0 -116 -4 -204 -10 -216 -7 -11 -26 -21 -50 -25 -82 -13 -35 -24 105
-24 138 0 187 11 109 23 -65 11 -64 8 -64 239 l0 210 38 -7 c49 -9 68 -27 91
-88 23 -64 47 -77 38 -21 -4 22 -7 60 -7 87 l0 47 -204 0 -203 0 -7 -37z"/>
<path d="M1033 823 c-7 -3 -13 -9 -13 -14 0 -6 5 -7 10 -4 6 3 10 1 10 -4 0
-6 4 -11 9 -11 5 0 8 7 7 15 -3 19 -8 23 -23 18z"/>
<path d="M952 790 c1 -16 5 -27 10 -24 4 3 8 0 8 -5 0 -6 -3 -11 -7 -11 -5 0
-8 -29 -8 -65 0 -47 3 -65 13 -65 10 0 12 21 10 90 -2 52 -7 90 -13 90 -5 0
-3 5 5 10 13 8 13 10 -2 10 -12 0 -16 -8 -16 -30z"/>
<path d="M576 735 c-31 -31 -31 -32 -10 -53 15 -15 16 -14 9 7 -5 16 -4 21 4
17 7 -5 8 -1 4 10 -4 12 -3 15 6 10 7 -5 21 0 33 11 12 10 18 12 14 6 -4 -8
-2 -13 5 -13 7 0 29 -15 48 -32 22 -22 32 -27 28 -15 -4 10 -7 23 -7 28 0 5
-6 8 -12 7 -7 -2 -12 3 -10 10 1 8 -2 11 -8 7 -5 -3 -10 0 -10 7 0 9 -13 15
-34 16 -26 2 -41 -4 -60 -23z m34 5 c0 -5 -5 -10 -11 -10 -5 0 -7 5 -4 10 3 6
8 10 11 10 2 0 4 -4 4 -10z"/>
<path d="M793 734 c-27 -27 -38 -31 -29 -9 3 8 1 15 -4 15 -13 0 -9 -63 5 -73
7 -6 6 -10 -2 -14 -7 -2 -13 -12 -12 -21 0 -11 2 -12 6 -4 2 6 10 9 15 6 8 -5
9 3 5 25 -5 26 -2 37 22 61 26 28 49 41 37 21 -3 -5 1 -12 10 -15 10 -4 13 -2
8 6 -4 7 -3 8 4 4 7 -4 12 -17 12 -29 0 -18 2 -19 10 -7 6 9 10 10 10 3 0 -6
-4 -15 -10 -18 -14 -9 -12 -42 3 -48 10 -4 10 -6 0 -6 -18 -1 -16 -41 1 -41
22 0 30 20 9 21 -14 0 -15 2 -3 7 8 4 16 15 18 26 2 11 -1 15 -7 11 -13 -8
-14 7 -2 21 13 13 1 64 -15 64 -8 0 -14 3 -14 8 0 18 -54 8 -77 -14z"/>
<path d="M1026 748 c3 -5 9 -6 13 -4 4 3 8 -10 8 -29 0 -19 -5 -35 -10 -35 -5
0 -7 9 -4 20 3 11 1 23 -4 26 -6 3 -9 -21 -7 -63 2 -52 6 -68 18 -68 12 0 15
17 17 82 1 74 0 82 -17 80 -10 -1 -16 -5 -14 -9z"/>
<path d="M1103 671 c0 -48 1 -78 4 -68 2 9 8 17 13 17 5 0 6 -7 3 -17 -4 -11
-3 -14 6 -9 8 5 11 28 9 66 -3 64 0 72 34 74 40 4 55 -18 52 -76 -2 -32 1 -55
8 -59 22 -14 28 1 28 64 0 47 -3 58 -11 47 -9 -12 -10 -11 -6 7 3 13 0 26 -5
30 -7 3 -8 1 -4 -5 4 -7 1 -12 -8 -12 -9 0 -13 6 -10 15 5 11 -1 13 -25 10
-17 -2 -35 -6 -41 -10 -5 -3 -10 -2 -10 4 0 5 -8 9 -18 8 -15 -1 -18 -12 -19
-86z m31 58 c-3 -5 -10 -7 -15 -3 -5 3 -7 10 -3 15 3 5 10 7 15 3 5 -3 7 -10
3 -15z m116 -48 c0 -6 -4 -13 -10 -16 -5 -3 -10 1 -10 9 0 9 5 16 10 16 6 0
10 -4 10 -9z m0 -51 c0 -11 -4 -20 -8 -20 -4 0 -8 9 -8 20 0 11 4 20 8 20 4 0
8 -9 8 -20z"/>
<path d="M1344 748 c-3 -5 -10 -6 -15 -3 -5 4 -9 -4 -9 -17 1 -18 2 -20 10 -8
5 9 20 15 37 14 15 -1 33 -3 39 -3 15 -1 14 -33 -2 -48 -15 -15 -34 -17 -34
-4 0 6 -9 8 -20 6 -11 -2 -22 0 -25 6 -4 5 -14 9 -23 8 -14 0 -14 -2 2 -8 18
-7 18 -8 3 -14 -9 -3 -17 -11 -17 -17 0 -6 5 -8 10 -5 6 3 10 1 10 -4 0 -6 -5
-11 -11 -11 -6 0 3 -12 20 -26 17 -14 37 -23 43 -21 10 4 10 6 0 6 -7 1 -10 6
-6 13 4 6 3 8 -3 5 -14 -9 -37 19 -30 36 4 10 19 13 51 10 47 -4 50 -2 49 45
-1 6 3 12 9 12 5 0 3 6 -4 14 -7 8 -16 12 -20 9 -5 -2 -8 0 -8 4 0 11 -50 12
-56 1z"/>
<path d="M683 679 c9 -26 -24 -65 -53 -63 -24 2 -65 -14 -45 -17 34 -6 77 -4
81 3 3 5 9 6 14 3 5 -3 12 0 16 6 4 8 3 9 -4 5 -19 -11 -14 5 6 23 18 16 18
17 -1 36 -15 15 -19 16 -14 4z"/>
<path d="M1435 670 c3 -5 8 -10 11 -10 2 0 4 5 4 10 0 6 -5 10 -11 10 -5 0 -7
-4 -4 -10z"/>
<path d="M553 649 c2 -13 11 -25 20 -27 23 -5 21 11 -3 33 -20 18 -20 18 -17
-6z"/>
<path d="M1403 620 c-3 -11 -10 -20 -16 -20 -6 0 -8 -2 -5 -5 3 -3 16 -1 29 4
13 5 18 10 11 10 -7 1 -10 6 -7 11 4 6 10 8 15 5 5 -3 11 -1 15 5 3 6 -3 10
-15 10 -13 0 -24 -8 -27 -20z"/>
<path d="M755 600 c4 -6 11 -8 16 -5 14 9 11 15 -7 15 -8 0 -12 -5 -9 -10z"/>
</g>
</svg>
